<?xml version="1.0" encoding="utf-8"?>
<!-- Generator: Adobe Illustrator 16.0.0, SVG Export Plug-In . SVG Version: 6.00 Build 0)  -->
<!DOCTYPE svg PUBLIC "-//W3C//DTD SVG 1.1//EN" "http://www.w3.org/Graphics/SVG/1.1/DTD/svg11.dtd">
<svg version="1.1" id="Warstwa_1" xmlns="http://www.w3.org/2000/svg" xmlns:xlink="http://www.w3.org/1999/xlink" x="0px" y="0px"
	 width="505.513px" height="350.104px" viewBox="0 0 505.513 350.104" enable-background="new 0 0 505.513 350.104"
	 xml:space="preserve">
<g>
	<defs>
		<rect id="SVGID_1_" width="505.513" height="350.104"/>
	</defs>
	<clipPath id="SVGID_2_">
		<use xlink:href="#SVGID_1_"  overflow="visible"/>
	</clipPath>
	<g clip-path="url(#SVGID_2_)">
		<defs>
			<rect id="SVGID_3_" width="505.513" height="350.104"/>
		</defs>
		<clipPath id="SVGID_4_">
			<use xlink:href="#SVGID_3_"  overflow="visible"/>
		</clipPath>
		<g opacity="0.18" clip-path="url(#SVGID_4_)">
			<g>
				<defs>
					<rect id="SVGID_5_" x="411.387" y="259.504" width="94.126" height="35.7"/>
				</defs>
				<clipPath id="SVGID_6_">
					<use xlink:href="#SVGID_5_"  overflow="visible"/>
				</clipPath>
				<path clip-path="url(#SVGID_6_)" d="M503.866,293.088h-60.38c0.153-0.098,0.313-0.19,0.455-0.304
					c6.47-2.474,11.066-8.735,11.066-16.074c0-1.843-0.297-3.616-0.834-5.28l2.237-5.379v-1.272l-0.864-0.963l-5.799,0.519
					l0.009,0.018c-3.097-2.995-7.307-4.848-11.956-4.848c-5.343,0-10.118,2.437-13.273,6.257h-7.883
					c-2.903,0-5.258,2.354-5.258,5.258v17.64c0,2.905,2.354,5.259,5.258,5.259h16.553v1.287h8.461v-1.222h62.208h1.646v-0.895
					v-4.627h-1.646V293.088z"/>
			</g>
		</g>
	</g>
	
		<rect x="71.651" y="120.431" transform="matrix(-0.3662 -0.9305 0.9305 -0.3662 62.2131 292.507)" clip-path="url(#SVGID_2_)" fill="#AF5200" width="118.148" height="9.269"/>
	<polygon clip-path="url(#SVGID_2_)" fill="#89A1B2" points="83.97,82.977 91.5,102.111 143.521,81.642 157.275,65.181 
		136.26,62.401 	"/>
	<polygon clip-path="url(#SVGID_2_)" fill="#FFE793" points="135.021,67.479 154.203,66.39 136.786,63.789 	"/>
	
		<rect x="109.398" y="47.711" transform="matrix(-0.3665 -0.9304 0.9304 -0.3665 81.0174 203.8842)" clip-path="url(#SVGID_2_)" fill="#FFE793" width="1.046" height="53.297"/>
	
		<rect x="85.156" y="136.024" transform="matrix(-0.3662 -0.9306 0.9306 -0.3662 53.7061 310.3672)" clip-path="url(#SVGID_2_)" fill="#B68C5D" width="94.798" height="1.737"/>
	
		<rect x="89.649" y="134.256" transform="matrix(-0.3662 -0.9305 0.9305 -0.3662 61.4913 312.1329)" clip-path="url(#SVGID_2_)" fill="#6B2100" width="94.798" height="1.737"/>
	<polygon clip-path="url(#SVGID_2_)" fill="#FF8800" points="501.596,290.347 439.388,290.347 439.388,291.242 501.743,291.242 
		503.241,291.242 503.241,290.347 503.241,285.721 501.596,285.721 	"/>
	<rect x="430.925" y="290.348" clip-path="url(#SVGID_2_)" fill="#713C2B" width="8.462" height="2.116"/>
	<polygon clip-path="url(#SVGID_2_)" fill="#713C2B" points="447.478,261.593 451.355,270.006 454.14,263.31 454.14,262.037 
		453.275,261.074 	"/>
	<g clip-path="url(#SVGID_2_)">
		<defs>
			<rect id="SVGID_7_" width="505.513" height="350.104"/>
		</defs>
		<clipPath id="SVGID_8_">
			<use xlink:href="#SVGID_7_"  overflow="visible"/>
		</clipPath>
		<path clip-path="url(#SVGID_8_)" fill="#FF8800" d="M435.679,256.763c-5.344,0-10.117,2.437-13.273,6.257h-7.882
			c-2.905,0-5.259,2.354-5.259,5.26v17.639c0,2.904,2.354,5.258,5.259,5.258h24.043c1.229,0,2.358-0.425,3.254-1.133
			c6.468-2.474,11.065-8.735,11.065-16.073C452.886,264.467,445.182,256.763,435.679,256.763"/>
		<path clip-path="url(#SVGID_8_)" fill="#AF5200" d="M436.026,260.662c-7.759,0-14.048,5.958-14.048,13.309
			c0,7.35,6.289,13.308,14.048,13.308c7.758,0,14.047-5.958,14.047-13.308C450.073,266.62,443.784,260.662,436.026,260.662"/>
		<g opacity="0.51" clip-path="url(#SVGID_8_)">
			<g>
				<defs>
					<rect id="SVGID_9_" x="432.233" y="270.177" width="7.586" height="7.585"/>
				</defs>
				<clipPath id="SVGID_10_">
					<use xlink:href="#SVGID_9_"  overflow="visible"/>
				</clipPath>
				<path clip-path="url(#SVGID_10_)" fill="#FFFFFF" d="M436.026,270.177c-2.096,0-3.793,1.697-3.793,3.793
					c0,2.095,1.697,3.792,3.793,3.792c2.095,0,3.793-1.697,3.793-3.792C439.819,271.875,438.121,270.177,436.026,270.177"/>
			</g>
		</g>
		<g opacity="0.2" clip-path="url(#SVGID_8_)">
			<g>
				<defs>
					<rect id="SVGID_11_" x="350.344" y="121.111" width="83.105" height="123.563"/>
				</defs>
				<clipPath id="SVGID_12_">
					<use xlink:href="#SVGID_11_"  overflow="visible"/>
				</clipPath>
				<path clip-path="url(#SVGID_12_)" d="M418.721,124.571c-13.702-7.479-30.872-2.434-38.352,11.268
					c-7.151,13.103-2.844,29.371,9.527,37.31l-21.578,37l-13.64,16.342c-4.791,5.741-6.225,14.719-1.137,17.496
					c5.09,2.776,11.864-3.284,14.102-10.419l6.366-20.312l19.445-38.165c13.369,6.112,29.382,0.935,36.534-12.169
					C437.468,149.22,432.423,132.05,418.721,124.571"/>
			</g>
		</g>
		<path clip-path="url(#SVGID_8_)" fill="#EBAA6B" d="M415.077,118.927c-13.702-7.479-30.873-2.434-38.353,11.268
			c-7.15,13.103-2.844,29.371,9.528,37.31l-34.36,58.915l6.955,3.797l30.964-60.769c13.369,6.111,29.381,0.933,36.534-12.17
			C433.824,143.576,428.779,126.406,415.077,118.927"/>
		<path clip-path="url(#SVGID_8_)" fill="#E0FAD7" d="M412.561,123.89c-11.006-6.007-24.797-1.955-30.805,9.051
			c-6.007,11.006-1.955,24.797,9.052,30.803c11.006,6.008,24.797,1.956,30.804-9.05S423.566,129.897,412.561,123.89"/>
		
			<circle clip-path="url(#SVGID_8_)" fill="none" stroke="#FFFFFF" stroke-width="2" stroke-miterlimit="10" cx="401.684" cy="143.817" r="22.702"/>
		<path clip-path="url(#SVGID_8_)" fill="#834400" d="M351.035,220.846c-4.792,5.742-6.225,14.718-1.137,17.495
			s11.864-3.283,14.101-10.419l6.446-20.569l-5.598-3.055L351.035,220.846z"/>
		<path clip-path="url(#SVGID_8_)" fill="#FFFFFF" d="M410.157,159.544c-8.44,4.522-16.544,2.551-18.329,2.071
			c6.658,3.86,14.889,3.736,21.284-0.336c9.28-5.908,9.399-16.756,9.396-17.437C422.098,145.387,419.511,154.532,410.157,159.544"/>
		<g opacity="0.16" clip-path="url(#SVGID_8_)">
			<g>
				<defs>
					<rect id="SVGID_13_" x="346.7" y="115.467" width="68.377" height="122.875"/>
				</defs>
				<clipPath id="SVGID_14_">
					<use xlink:href="#SVGID_13_"  overflow="visible"/>
				</clipPath>
				<path clip-path="url(#SVGID_14_)" d="M376.726,130.195c-7.151,13.103-2.846,29.371,9.526,37.31l-21.444,36.771l0.04,0.022
					l-13.813,16.548c-4.792,5.742-6.224,14.719-1.136,17.496l65.178-119.415C401.374,111.448,384.204,116.493,376.726,130.195"/>
			</g>
		</g>
		<g opacity="0.18" clip-path="url(#SVGID_8_)">
			<g>
				<defs>
					<rect id="SVGID_15_" x="376.104" y="177.756" width="111.57" height="81.153"/>
				</defs>
				<clipPath id="SVGID_16_">
					<use xlink:href="#SVGID_15_"  overflow="visible"/>
				</clipPath>
				<path clip-path="url(#SVGID_16_)" d="M485.261,204.504l-8.781-8.902l1.466-0.973l-8.146-13.44l-8.798-3.434l-4.151,0.393
					l-19.139,12.69c-1.649,1.096-3.301,2.189-4.952,3.284c-2.545,2.789-5.089,5.579-7.633,8.368
					c0.697,9.007-2.672,14.019-4.564,16.251c-4.69,5.531-12.211,8.019-20.873,10.884c-7.43,2.457-13.406,3.386-19.124,7.984
					c-2.971,2.388-4.021,4.277-4.341,5.836c-0.443,2.149,0.442,3.934,1.073,5.204c0.795,1.599,1.824,2.696,2.616,3.397
					c0.337,1.003,0.949,2.378,2.113,3.732c0.924,1.075,2.223,2.586,4.375,3.014c1.56,0.312,3.711,0.08,7.065-1.727
					c6.46-3.479,9.643-8.623,14.797-14.511c6.01-6.864,11.229-12.824,18.148-14.992c2.792-0.875,8.72-2.028,16.747,2.117
					c3.558-1.258,7.118-2.516,10.677-3.774c1.332-0.884,2.665-1.768,3.997-2.651l17.696-11.733l5.64-2.196l6.505,1.71l-4.412-5.205
					L485.261,204.504z M389.187,249.606c-1.767,1.171-3.962,0.967-4.905-0.455c-0.943-1.421-0.276-3.523,1.49-4.694
					c1.766-1.171,3.962-0.968,4.903,0.454C391.619,246.333,390.952,248.435,389.187,249.606"/>
			</g>
		</g>
		<polygon clip-path="url(#SVGID_8_)" fill="#DA7A16" points="481.496,199.741 472.715,190.838 474.18,189.866 466.034,176.425 
			457.235,172.992 453.084,173.384 432.991,186.708 454.067,218.492 471.764,206.758 477.403,204.562 483.909,206.272 
			479.498,201.066 		"/>
		<path clip-path="url(#SVGID_8_)" fill="#D38520" d="M433.946,186.075c-1.65,1.095-3.301,2.189-4.953,3.285
			c-2.544,2.788-5.089,5.577-7.633,8.366c0.697,9.007-2.672,14.02-4.564,16.251c-4.689,5.531-12.21,8.02-20.873,10.886
			c-7.43,2.457-13.406,3.385-19.123,7.982c-2.972,2.39-4.021,4.279-4.342,5.836c-0.443,2.15,0.442,3.936,1.073,5.204
			c0.795,1.601,1.825,2.698,2.617,3.398c0.336,1.003,0.948,2.378,2.112,3.731c0.924,1.076,2.223,2.587,4.376,3.015
			c1.559,0.311,3.71,0.08,7.064-1.728c6.46-3.478,9.644-8.623,14.797-14.509c6.011-6.866,11.229-12.826,18.148-14.994
			c2.792-0.874,8.72-2.028,16.747,2.119c3.559-1.259,7.119-2.517,10.677-3.775c1.652-1.095,3.304-2.189,4.954-3.284
			c-3.61-5.232-7.221-10.466-10.832-15.698C440.777,196.798,437.361,191.436,433.946,186.075 M385.421,244.841
			c-1.767,1.171-3.962,0.968-4.904-0.454c-0.944-1.422-0.277-3.523,1.489-4.694c1.767-1.172,3.962-0.969,4.904,0.453
			C387.854,241.569,387.187,243.67,385.421,244.841"/>
		<g opacity="0.68" clip-path="url(#SVGID_8_)">
			<g>
				<defs>
					<rect id="SVGID_17_" x="382.775" y="236.313" width="18.567" height="15.538"/>
				</defs>
				<clipPath id="SVGID_18_">
					<use xlink:href="#SVGID_17_"  overflow="visible"/>
				</clipPath>
				<path clip-path="url(#SVGID_18_)" fill="#FFBA6B" d="M382.821,248.442c-0.262,1.408,0.618,2.917,2.001,3.307
					c3.434,0.968,9.265-5.161,10.604-6.57c2.951-3.101,4.773-6.263,5.917-8.864c-5.083,2.699-9.397,5.13-12.83,7.117
					C385.431,245.215,383.165,246.584,382.821,248.442"/>
			</g>
		</g>
		
			<rect x="422.932" y="201.528" transform="matrix(-0.5527 -0.8334 0.8334 -0.5527 515.5973 684.6027)" clip-path="url(#SVGID_8_)" fill="#FFBA6B" width="37.199" height="4.796"/>
		
			<rect x="415.913" y="209.644" transform="matrix(-0.5527 -0.8334 0.8334 -0.5527 495.1122 686.3156)" clip-path="url(#SVGID_8_)" fill="#FFBA6B" width="31.664" height="1.278"/>
		<path clip-path="url(#SVGID_8_)" fill="#E7E7DE" d="M474.674,202.157c-0.317,0.154-0.626,0.346-0.971,0.505
			c-0.34,0.152-0.65,0.313-0.967,0.463c-0.314,0.147-0.629,0.295-0.958,0.47c-1.349,0.695-2.55,1.317-3.837,2.212
			c-0.129,0.086-0.832,0.537-1.798,1.202c-0.968,0.66-2.189,1.556-3.377,2.481c-2.374,1.85-4.64,3.801-4.564,3.938
			c0.033,0.063,1.472-1.116,1.548-1.165c0.77-0.505,2.605-1.92,4.396-3.227c1.786-1.319,3.547-2.493,4.052-2.858
			c0.465-0.337,0.916-0.663,1.37-0.962c0.448-0.312,0.899-0.593,1.351-0.877c0.449-0.288,0.911-0.544,1.377-0.823
			c0.476-0.25,0.947-0.535,1.455-0.779c0.334-0.163,0.636-0.361,0.946-0.522c0.312-0.162,0.624-0.316,0.967-0.429
			c0.017-0.004,0.024-0.019,0.021-0.03c-0.002-0.012-0.017-0.019-0.033-0.012C475.308,201.852,474.989,202,474.674,202.157"/>
		<path clip-path="url(#SVGID_8_)" fill="#E7E7DE" d="M474.271,201.19c-0.328,0.16-0.646,0.355-1.001,0.52
			c-0.352,0.157-0.672,0.322-0.995,0.477c-0.325,0.152-0.65,0.304-0.985,0.484c-1.387,0.714-2.616,1.353-3.927,2.265
			c-0.133,0.088-0.851,0.547-1.83,1.223c-0.984,0.673-2.22,1.58-3.418,2.514c-2.398,1.868-4.662,3.817-4.586,3.957
			c0.032,0.061,1.471-1.118,1.551-1.168c0.769-0.506,2.614-1.93,4.423-3.251c1.806-1.335,3.6-2.531,4.116-2.903
			c0.946-0.693,1.854-1.303,2.783-1.879c0.461-0.294,0.937-0.558,1.415-0.842c0.488-0.259,0.975-0.55,1.5-0.803
			c0.346-0.168,0.654-0.369,0.977-0.535c0.323-0.167,0.647-0.325,1.001-0.441c0.017-0.005,0.025-0.021,0.022-0.032
			c-0.003-0.011-0.019-0.019-0.034-0.011C474.927,200.877,474.599,201.029,474.271,201.19"/>
		<path clip-path="url(#SVGID_8_)" fill="#E7E7DE" d="M473.87,200.224c-0.339,0.165-0.667,0.363-1.033,0.532
			c-0.362,0.163-0.692,0.333-1.025,0.49c-0.334,0.158-0.667,0.314-1.012,0.499c-1.423,0.733-2.679,1.391-4.017,2.318
			c-0.136,0.09-0.864,0.557-1.86,1.244c-0.999,0.683-2.25,1.603-3.46,2.545c-2.42,1.886-4.684,3.836-4.609,3.975
			c0.033,0.062,1.476-1.12,1.555-1.17c0.771-0.508,2.625-1.937,4.455-3.276c1.823-1.35,3.649-2.568,4.177-2.946
			c0.966-0.705,1.894-1.329,2.847-1.918c0.472-0.3,0.962-0.571,1.452-0.863c0.504-0.265,1.005-0.563,1.545-0.824
			c0.356-0.172,0.676-0.378,1.009-0.549s0.668-0.333,1.035-0.454c0.015-0.005,0.024-0.02,0.022-0.032
			c-0.003-0.012-0.019-0.019-0.035-0.01C474.548,199.902,474.209,200.058,473.87,200.224"/>
		<path clip-path="url(#SVGID_8_)" fill="#E7E7DE" d="M473.469,199.257c-0.352,0.169-0.688,0.373-1.065,0.547
			c-0.373,0.168-0.712,0.343-1.054,0.505c-0.344,0.161-0.687,0.323-1.04,0.512c-1.459,0.754-2.743,1.427-4.106,2.372
			c-0.137,0.091-0.881,0.567-1.891,1.266c-1.015,0.694-2.282,1.626-3.501,2.576c-2.444,1.904-4.705,3.854-4.631,3.993
			c0.032,0.061,1.475-1.121,1.557-1.172c0.772-0.51,2.633-1.947,4.485-3.302c1.843-1.364,3.7-2.606,4.237-2.99
			c0.985-0.719,1.936-1.354,2.91-1.956c0.484-0.309,0.988-0.585,1.491-0.885c0.517-0.272,1.032-0.576,1.589-0.846
			c0.367-0.177,0.697-0.388,1.041-0.563c0.343-0.177,0.69-0.343,1.067-0.468c0.016-0.006,0.025-0.02,0.022-0.031
			c-0.002-0.013-0.017-0.02-0.036-0.012C474.167,198.927,473.818,199.087,473.469,199.257"/>
		<path clip-path="url(#SVGID_8_)" fill="#E7E7DE" d="M473.066,198.292c-0.361,0.173-0.709,0.381-1.098,0.562
			c-0.383,0.173-0.73,0.351-1.083,0.518c-0.353,0.166-0.704,0.332-1.065,0.525c-1.497,0.772-2.809,1.463-4.195,2.425
			c-0.141,0.094-0.896,0.579-1.923,1.288c-1.031,0.705-2.313,1.647-3.543,2.606c-2.465,1.924-4.728,3.872-4.653,4.013
			c0.032,0.061,1.479-1.123,1.561-1.176c0.772-0.51,2.644-1.954,4.516-3.324c1.861-1.38,3.752-2.645,4.299-3.036
			c0.504-0.363,0.993-0.713,1.49-1.039c0.488-0.337,0.986-0.646,1.483-0.956c0.495-0.314,1.013-0.599,1.527-0.904
			c0.534-0.279,1.062-0.591,1.636-0.867c0.378-0.183,0.718-0.396,1.072-0.576c0.354-0.182,0.711-0.352,1.101-0.481
			c0.017-0.005,0.025-0.02,0.023-0.032c-0.002-0.012-0.018-0.019-0.037-0.01C473.788,197.953,473.427,198.117,473.066,198.292"/>
		<path clip-path="url(#SVGID_8_)" fill="#E7E7DE" d="M469.205,197.961c-0.322,0.136-0.623,0.262-0.924,0.388
			c-0.302,0.123-0.602,0.243-0.917,0.387c-1.291,0.57-2.439,1.065-3.667,1.816c-0.243,0.145-2.688,1.482-4.838,3.152
			c-2.179,1.63-4.024,3.551-3.932,3.675c0.038,0.056,1.225-1.081,1.302-1.119c0.655-0.486,2.259-1.781,3.909-2.904
			c1.636-1.143,3.311-2.108,3.792-2.418c1.773-1.138,3.391-2.019,5.317-2.899c0.634-0.294,1.173-0.646,1.826-0.831
			c0.015-0.005,0.022-0.018,0.021-0.03c-0.003-0.011-0.017-0.02-0.033-0.013C470.406,197.344,469.856,197.678,469.205,197.961"/>
		<path clip-path="url(#SVGID_8_)" fill="#E7E7DE" d="M468.816,196.99c-0.331,0.14-0.641,0.269-0.947,0.397
			c-0.309,0.126-0.617,0.25-0.94,0.396c-1.322,0.585-2.5,1.094-3.758,1.864c-0.25,0.148-2.753,1.521-4.956,3.232
			c-2.232,1.671-4.127,3.64-4.034,3.766c0.038,0.055,1.257-1.111,1.335-1.151c0.67-0.499,2.313-1.829,4.002-2.981
			c1.678-1.172,3.395-2.164,3.888-2.48c1.817-1.164,3.478-2.064,5.454-2.967c0.648-0.299,1.203-0.657,1.874-0.848
			c0.015-0.004,0.022-0.019,0.02-0.03c-0.001-0.011-0.016-0.02-0.032-0.012C470.049,196.361,469.484,196.7,468.816,196.99"/>
		<path clip-path="url(#SVGID_8_)" fill="#E7E7DE" d="M468.427,196.019c-0.34,0.142-0.655,0.274-0.971,0.406
			c-0.315,0.131-0.633,0.258-0.962,0.407c-1.355,0.601-2.561,1.123-3.848,1.911c-0.257,0.151-2.82,1.559-5.075,3.313
			c-2.288,1.712-4.228,3.729-4.136,3.855c0.038,0.055,1.285-1.14,1.366-1.181c0.685-0.515,2.364-1.879,4.096-3.062
			c1.717-1.202,3.476-2.218,3.98-2.541c1.864-1.19,3.566-2.112,5.593-3.034c0.666-0.306,1.233-0.67,1.922-0.865
			c0.014-0.004,0.022-0.019,0.02-0.03c-0.002-0.012-0.016-0.019-0.031-0.013C469.691,195.376,469.112,195.723,468.427,196.019"/>
		<path clip-path="url(#SVGID_8_)" fill="#E7E7DE" d="M468.038,195.047c-0.349,0.146-0.671,0.281-0.994,0.417
			c-0.323,0.132-0.648,0.263-0.985,0.417c-1.388,0.615-2.621,1.152-3.938,1.957c-0.264,0.155-2.886,1.598-5.194,3.394
			c-2.34,1.753-4.327,3.819-4.236,3.945c0.037,0.057,1.315-1.17,1.398-1.211c0.698-0.527,2.419-1.927,4.188-3.14
			c1.759-1.231,3.559-2.272,4.076-2.604c1.91-1.217,3.653-2.158,5.729-3.1c0.683-0.313,1.267-0.682,1.97-0.884
			c0.015-0.004,0.024-0.019,0.022-0.03c-0.004-0.012-0.018-0.02-0.034-0.013C469.334,194.393,468.739,194.745,468.038,195.047"/>
		<path clip-path="url(#SVGID_8_)" fill="#E7E7DE" d="M467.648,194.077c-0.355,0.148-0.688,0.288-1.018,0.426
			c-0.332,0.136-0.662,0.27-1.007,0.428c-1.421,0.629-2.681,1.181-4.03,2.004c-0.269,0.158-2.95,1.637-5.313,3.474
			c-2.395,1.794-4.428,3.908-4.337,4.035c0.037,0.057,1.345-1.198,1.429-1.24c0.713-0.543,2.472-1.978,4.284-3.219
			c1.798-1.262,3.639-2.326,4.171-2.665c1.955-1.242,3.739-2.205,5.864-3.167c0.698-0.318,1.298-0.693,2.018-0.901
			c0.015-0.005,0.024-0.019,0.022-0.03c-0.002-0.013-0.018-0.02-0.034-0.013C468.977,193.41,468.367,193.766,467.648,194.077"/>
		<path clip-path="url(#SVGID_8_)" fill="#E7E7DE" d="M458.497,179.248c-0.696,0.318-1.307,0.594-1.992,0.925
			c-1.401,0.691-2.651,1.313-4.016,2.184c-0.139,0.085-0.88,0.535-1.913,1.164c-1.033,0.639-2.357,1.487-3.671,2.342
			c-2.623,1.706-5.163,3.402-5.1,3.555c0.024,0.065,1.624-0.971,1.71-1.015c0.837-0.433,2.883-1.681,4.848-2.916
			c1.96-1.239,3.829-2.393,4.368-2.75c1.979-1.334,3.733-2.383,5.812-3.413c0.684-0.34,1.266-0.725,1.975-0.938
			c0.015-0.004,0.024-0.018,0.021-0.029c-0.002-0.013-0.018-0.02-0.034-0.013C459.795,178.549,459.201,178.917,458.497,179.248"/>
		<path clip-path="url(#SVGID_8_)" fill="#E7E7DE" d="M458.077,178.29c-0.718,0.326-1.343,0.61-2.045,0.949
			c-1.436,0.708-2.706,1.344-4.091,2.226c-0.571,0.264-10.835,6.782-10.717,7.082c0.025,0.064,1.624-0.971,1.71-1.016
			c0.839-0.432,2.883-1.681,4.85-2.917c1.963-1.24,3.854-2.407,4.399-2.77c2.005-1.351,3.799-2.423,5.94-3.481
			c0.705-0.348,1.308-0.741,2.04-0.963c0.017-0.005,0.024-0.019,0.022-0.03c-0.003-0.013-0.017-0.02-0.035-0.013
			C459.418,177.573,458.803,177.949,458.077,178.29"/>
		<path clip-path="url(#SVGID_8_)" fill="#E7E7DE" d="M457.658,177.331c-0.738,0.337-1.379,0.628-2.101,0.976
			c-1.468,0.725-2.761,1.374-4.164,2.266c-0.608,0.288-10.87,6.806-10.749,7.104c0.025,0.064,1.624-0.971,1.71-1.015
			c1.682-0.863,8.158-5.011,9.282-5.708c2.033-1.367,3.864-2.462,6.068-3.549c0.725-0.356,1.35-0.76,2.105-0.989
			c0.018-0.004,0.027-0.02,0.024-0.03c-0.002-0.012-0.019-0.02-0.035-0.012C459.042,176.596,458.404,176.981,457.658,177.331"/>
		<path clip-path="url(#SVGID_8_)" fill="#E7E7DE" d="M457.239,176.372c-0.761,0.346-1.416,0.646-2.154,1.001
			c-1.502,0.743-2.817,1.404-4.238,2.309c-0.143,0.087-0.907,0.552-1.973,1.201c-1.061,0.656-2.399,1.516-3.708,2.367
			c-2.624,1.705-5.163,3.402-5.102,3.556c0.025,0.064,1.624-0.972,1.71-1.016c0.84-0.433,2.882-1.68,4.852-2.918
			c1.967-1.245,3.902-2.439,4.465-2.812c2.058-1.384,3.927-2.5,6.195-3.614c0.747-0.366,1.393-0.778,2.173-1.016
			c0.017-0.006,0.027-0.02,0.023-0.031c-0.002-0.012-0.017-0.02-0.035-0.011C458.665,175.62,458.006,176.013,457.239,176.372"/>
		<path clip-path="url(#SVGID_8_)" fill="#E7E7DE" d="M456.819,175.414c-0.78,0.354-1.452,0.662-2.207,1.025
			c-1.536,0.761-2.872,1.435-4.313,2.351c-0.144,0.088-0.916,0.558-1.993,1.214c-1.067,0.661-2.411,1.523-3.721,2.376
			c-2.623,1.705-5.162,3.401-5.101,3.555c0.024,0.064,1.625-0.971,1.711-1.016c0.839-0.433,2.88-1.68,4.851-2.918
			c1.969-1.246,3.927-2.456,4.497-2.832c2.087-1.4,3.994-2.54,6.324-3.682c0.767-0.376,1.435-0.795,2.238-1.042
			c0.019-0.005,0.027-0.019,0.026-0.031c-0.002-0.012-0.019-0.02-0.038-0.011C458.288,174.643,457.608,175.045,456.819,175.414"/>
		<g opacity="0.25" clip-path="url(#SVGID_8_)">
			<g>
				<defs>
					<rect id="SVGID_19_" x="121.088" y="243.984" width="221.109" height="106.12"/>
				</defs>
				<clipPath id="SVGID_20_">
					<use xlink:href="#SVGID_19_"  overflow="visible"/>
				</clipPath>
				<path clip-path="url(#SVGID_20_)" d="M210.522,244.073h-38.149v6.272h5.303v24.187h-5.303v6.271h-5.835v0.168h-45.45v11.805
					h6.318v45.523h-6.318v11.805h49.039v-0.168h153.286v-11.805h-5.835v-45.523h5.835v-11.805H213.535v-0.089h128.662v-6.271h-4.898
					v-24.187h4.898v-6.272H210.522V244.073z M172.373,338.131h-0.054v-45.523h0.054V338.131z M215.375,250.256h0.045v24.187h-0.045
					V250.256z"/>
			</g>
		</g>
		<rect x="163.541" y="281.221" clip-path="url(#SVGID_8_)" fill="#FFBA6B" width="145.205" height="57.936"/>
		<rect x="118.574" y="281.221" clip-path="url(#SVGID_8_)" fill="#BB6523" width="44.913" height="57.936"/>
		<rect x="112.256" y="275.715" clip-path="url(#SVGID_8_)" fill="#A46D3B" width="49.039" height="11.804"/>
		<rect x="112.256" y="333.043" clip-path="url(#SVGID_8_)" fill="#A46D3B" width="49.039" height="11.804"/>
		<rect x="157.706" y="275.547" clip-path="url(#SVGID_8_)" fill="#D59C6B" width="156.875" height="11.804"/>
		<rect x="157.706" y="332.875" clip-path="url(#SVGID_8_)" fill="#D59C6B" width="156.875" height="11.804"/>
		<rect x="206.588" y="241.742" clip-path="url(#SVGID_8_)" fill="#FFBA6B" width="121.88" height="30.782"/>
		<rect x="168.844" y="241.742" clip-path="url(#SVGID_8_)" fill="#B57F27" width="37.698" height="30.782"/>
		<rect x="163.541" y="238.816" clip-path="url(#SVGID_8_)" fill="#865720" width="41.161" height="6.272"/>
		<rect x="163.541" y="269.275" clip-path="url(#SVGID_8_)" fill="#865720" width="41.161" height="6.272"/>
		<rect x="201.69" y="238.727" clip-path="url(#SVGID_8_)" fill="#BB6523" width="131.675" height="6.271"/>
		<rect x="201.69" y="269.185" clip-path="url(#SVGID_8_)" fill="#BB6523" width="131.675" height="6.271"/>
		<polygon clip-path="url(#SVGID_8_)" fill="#BB6523" points="60.723,121.632 59.543,114.301 56.105,120.187 53.804,118.353 
			48.49,129.741 46.802,128.397 36.445,140.132 36.869,150.301 39.175,154.645 62.31,173.086 85.974,143.398 65.6,127.158 		"/>
		<path clip-path="url(#SVGID_8_)" fill="#93695D" d="M150.792,204.477c-6.594-6.111-13.437-8.345-21.957-12.518
			c-9.937-4.864-18.563-9.089-23.995-15.987c-2.192-2.783-6.108-8.852-5.431-18.358c-2.944-3.516-5.888-7.032-8.832-10.548
			c-1.9-1.515-3.802-3.03-5.702-4.545c-3.832,5.037-7.664,10.075-11.496,15.112c-4.056,4.859-8.113,9.717-12.168,14.576
			c1.9,1.515,3.801,3.031,5.702,4.546c4.084,2.085,8.167,4.171,12.251,6.257c9.116-2.779,15.906-0.315,19.107,1.201
			c7.937,3.757,13.978,11.224,20.937,19.824c5.967,7.376,9.67,13.548,17.097,18.613c3.859,2.631,6.318,3.324,8.097,3.316
			c2.454-0.014,3.918-1.363,4.96-2.323c1.313-1.21,1.992-2.558,2.364-3.562c0.897-0.587,2.058-1.551,2.945-3.099
			c0.704-1.229,1.693-2.958,1.158-5.353C155.441,209.894,154.217,207.652,150.792,204.477 M146.697,216.074
			c-1.059,1.328-3.564,1.091-5.598-0.53c-2.033-1.619-2.823-4.011-1.764-5.339c1.058-1.328,3.564-1.091,5.597,0.53
			C146.966,212.355,147.756,214.746,146.697,216.074"/>
		<path clip-path="url(#SVGID_8_)" fill="#B3948B" d="M140.715,199.975c-4.597-2.449-8.741-3.68-11.989-4.313
			c5.15,4.815,9.666,8.874,13.316,12.089c3.277,2.887,5.745,4.998,7.849,4.944c1.595-0.04,2.771-1.319,2.549-2.884
			C151.887,205.927,142.803,201.087,140.715,199.975"/>
		
			<rect x="73.501" y="141.561" transform="matrix(-0.782 -0.6233 0.6233 -0.782 36.4402 332.8996)" clip-path="url(#SVGID_8_)" fill="#B3948B" width="5.885" height="37.031"/>
		
			<rect x="86.788" y="153.326" transform="matrix(-0.7821 -0.6232 0.6232 -0.7821 50.6907 355.8999)" clip-path="url(#SVGID_8_)" fill="#B3948B" width="1.57" height="31.521"/>
		<path clip-path="url(#SVGID_8_)" fill="#E7E7DE" d="M75.325,139.608c-0.771-0.644-2.774-2.157-4.607-3.74
			c-1.85-1.566-3.518-3.19-4.039-3.645c-1.924-1.681-3.507-3.254-5.2-5.143c-0.559-0.621-1.196-1.137-1.614-1.796
			c-0.009-0.014-0.03-0.021-0.048-0.017c-0.016,0.004-0.025,0.019-0.012,0.035c0.41,0.662,1.023,1.192,1.574,1.836
			c0.265,0.32,0.512,0.618,0.759,0.916c0.244,0.3,0.482,0.6,0.753,0.912c1.092,1.282,2.041,2.442,3.339,3.632
			c0.25,0.235,2.633,2.656,5.287,4.699c2.624,2.083,5.421,3.715,5.514,3.537C77.075,140.759,75.396,139.69,75.325,139.608"/>
		<path clip-path="url(#SVGID_8_)" fill="#E7E7DE" d="M74.737,140.835c-0.814-0.672-2.929-2.259-4.86-3.922
			c-1.95-1.645-3.706-3.353-4.254-3.834c-2.02-1.773-3.681-3.431-5.456-5.424c-0.588-0.655-1.248-1.202-1.691-1.895
			c-0.01-0.016-0.032-0.023-0.049-0.019c-0.017,0.004-0.025,0.02-0.011,0.036c0.434,0.697,1.071,1.258,1.65,1.936
			c0.28,0.338,0.54,0.651,0.8,0.965c0.256,0.316,0.508,0.632,0.794,0.959c1.15,1.349,2.153,2.566,3.515,3.817
			c0.263,0.248,2.771,2.79,5.563,4.935c2.76,2.189,5.705,3.908,5.8,3.731C76.582,142.045,74.813,140.919,74.737,140.835"/>
		<path clip-path="url(#SVGID_8_)" fill="#E7E7DE" d="M74.15,142.063c-0.859-0.701-3.084-2.362-5.114-4.105
			c-2.049-1.725-3.895-3.517-4.468-4.022c-2.115-1.866-3.855-3.608-5.715-5.706c-0.614-0.689-1.299-1.267-1.766-1.995
			c-0.01-0.016-0.033-0.024-0.05-0.02c-0.018,0.004-0.026,0.02-0.011,0.037c0.46,0.731,1.121,1.325,1.728,2.038
			c0.293,0.354,0.567,0.683,0.839,1.013c0.27,0.331,0.535,0.662,0.835,1.006c1.208,1.416,2.266,2.689,3.693,4.003
			c0.275,0.26,2.908,2.921,5.838,5.17c2.895,2.293,5.989,4.101,6.086,3.924C76.088,143.333,74.229,142.15,74.15,142.063"/>
		<path clip-path="url(#SVGID_8_)" fill="#E7E7DE" d="M73.562,143.291c-0.904-0.729-3.237-2.465-5.367-4.287
			c-2.149-1.804-4.083-3.679-4.683-4.21c-2.21-1.959-4.028-3.786-5.971-5.987c-0.642-0.724-1.351-1.333-1.844-2.095
			c-0.01-0.017-0.033-0.025-0.051-0.022c-0.017,0.004-0.024,0.021-0.01,0.039c0.486,0.765,1.17,1.39,1.806,2.138
			c0.307,0.371,0.594,0.716,0.879,1.061c0.282,0.347,0.561,0.695,0.875,1.054c1.267,1.482,2.379,2.811,3.87,4.187
			c0.288,0.273,3.046,3.055,6.113,5.408c3.031,2.397,6.274,4.292,6.371,4.116C75.595,144.621,73.645,143.382,73.562,143.291"/>
		<path clip-path="url(#SVGID_8_)" fill="#E7E7DE" d="M72.974,144.519c-0.948-0.757-3.392-2.568-5.62-4.47
			c-2.248-1.883-4.272-3.843-4.897-4.399c-2.306-2.05-4.202-3.963-6.229-6.268c-0.67-0.758-1.402-1.398-1.921-2.194
			c-0.011-0.018-0.034-0.027-0.052-0.023c-0.017,0.003-0.024,0.021-0.009,0.04c0.511,0.799,1.22,1.456,1.883,2.238
			c0.322,0.388,0.62,0.749,0.92,1.11c0.295,0.362,0.587,0.725,0.915,1.101c1.326,1.549,2.49,2.934,4.047,4.373
			c0.301,0.285,3.185,3.187,6.389,5.642c3.168,2.503,6.557,4.486,6.657,4.31C75.104,145.908,73.062,144.613,72.974,144.519"/>
		<path clip-path="url(#SVGID_8_)" fill="#E7E7DE" d="M71.245,146.04c-0.728-0.675-2.675-2.187-4.496-3.629
			c-1.833-1.44-3.519-2.83-4.038-3.209c-1.917-1.396-3.508-2.669-5.22-4.196c-0.565-0.502-1.186-0.882-1.629-1.442
			c-0.01-0.012-0.029-0.015-0.045-0.008c-0.014,0.007-0.02,0.024-0.008,0.036c0.437,0.566,1.039,0.964,1.6,1.49
			c0.55,0.519,1.002,0.994,1.551,1.516c1.117,1.068,2.097,2.058,3.387,3.053c0.25,0.202,2.647,2.246,5.214,4.14
			c2.545,1.897,5.176,3.702,5.304,3.543C72.921,147.268,71.314,146.107,71.245,146.04"/>
		<path clip-path="url(#SVGID_8_)" fill="#E7E7DE" d="M70.563,147.205c-0.729-0.677-2.695-2.201-4.558-3.673
			c-1.871-1.469-3.616-2.906-4.155-3.3c-1.985-1.453-3.649-2.788-5.458-4.413c-0.598-0.533-1.249-0.944-1.723-1.539
			c-0.01-0.013-0.031-0.016-0.045-0.009c-0.015,0.006-0.021,0.023-0.007,0.037c0.467,0.6,1.099,1.03,1.692,1.588
			c0.582,0.551,1.062,1.051,1.639,1.6c1.177,1.122,2.203,2.152,3.539,3.185c0.26,0.21,2.746,2.325,5.353,4.247
			c2.591,1.93,5.221,3.733,5.35,3.575C72.247,148.437,70.635,147.274,70.563,147.205"/>
		<path clip-path="url(#SVGID_8_)" fill="#E7E7DE" d="M69.882,148.37c-0.733-0.679-2.717-2.215-4.619-3.717
			c-1.909-1.496-3.715-2.98-4.273-3.39c-2.054-1.51-3.793-2.909-5.698-4.63c-0.629-0.565-1.31-1.007-1.815-1.637
			c-0.011-0.014-0.033-0.017-0.048-0.01c-0.015,0.007-0.02,0.024-0.005,0.038c0.499,0.635,1.161,1.096,1.786,1.686
			c0.613,0.583,1.12,1.109,1.726,1.684c1.236,1.178,2.309,2.248,3.692,3.317c0.269,0.219,2.844,2.404,5.491,4.354
			c2.638,1.963,5.266,3.764,5.396,3.608C71.571,149.606,69.957,148.44,69.882,148.37"/>
		<path clip-path="url(#SVGID_8_)" fill="#E7E7DE" d="M69.202,149.535c-0.736-0.681-2.737-2.229-4.681-3.761
			c-1.947-1.524-3.813-3.056-4.389-3.482c-2.124-1.567-3.936-3.028-5.939-4.846c-0.66-0.597-1.372-1.07-1.908-1.734
			c-0.012-0.015-0.033-0.019-0.049-0.012c-0.014,0.007-0.019,0.025-0.004,0.04c0.531,0.669,1.223,1.162,1.88,1.784
			c0.645,0.614,1.179,1.167,1.813,1.768c1.296,1.232,2.417,2.343,3.844,3.45c0.278,0.226,2.944,2.481,5.631,4.46
			c2.683,1.996,5.31,3.796,5.441,3.64C70.897,150.776,69.278,149.607,69.202,149.535"/>
		<path clip-path="url(#SVGID_8_)" fill="#E7E7DE" d="M68.521,150.699c-0.739-0.683-2.759-2.244-4.742-3.805
			c-1.986-1.551-3.911-3.131-4.507-3.572c-2.193-1.624-4.078-3.148-6.179-5.063c-0.691-0.628-1.433-1.133-2.002-1.831
			c-0.011-0.016-0.034-0.021-0.049-0.014c-0.015,0.007-0.019,0.025-0.002,0.041c0.561,0.703,1.284,1.228,1.973,1.882
			c0.676,0.646,1.237,1.225,1.9,1.853c1.354,1.286,2.523,2.437,3.997,3.581c0.287,0.235,3.042,2.56,5.769,4.567
			c2.73,2.029,5.355,3.827,5.487,3.672C70.222,151.944,68.599,150.773,68.521,150.699"/>
		<path clip-path="url(#SVGID_8_)" fill="#E7E7DE" d="M52.754,159.006c-2.108-1.489-4.055-3.07-4.639-3.526
			c-2.151-1.679-3.957-3.238-5.918-5.13c-0.649-0.622-1.279-1.153-1.844-1.802c-0.012-0.014-0.029-0.021-0.037-0.019
			c-0.008,0.003-0.005,0.017,0.009,0.032c0.563,0.651,1.184,1.193,1.836,1.832c0.64,0.631,1.186,1.186,1.83,1.798
			c1.317,1.255,2.49,2.359,3.947,3.517c0.284,0.231,3.053,2.543,5.98,4.466c2.905,1.967,5.896,3.504,5.946,3.42
			c0.026-0.035-1.804-1.042-1.889-1.114C57.097,161.918,54.852,160.513,52.754,159.006"/>
		<path clip-path="url(#SVGID_8_)" fill="#E7E7DE" d="M52.423,159.595c-2.153-1.521-4.143-3.135-4.738-3.601
			c-2.197-1.715-4.04-3.309-6.043-5.243c-0.662-0.635-1.304-1.179-1.882-1.842c-0.013-0.015-0.029-0.022-0.037-0.02
			c-0.009,0.003-0.006,0.017,0.01,0.033c0.574,0.664,1.208,1.219,1.874,1.873c0.653,0.644,1.212,1.211,1.87,1.836
			c1.344,1.281,2.543,2.408,4.03,3.591c0.291,0.236,3.119,2.596,6.108,4.56c2.967,2.007,6.022,3.579,6.075,3.496
			c0.025-0.036-1.845-1.064-1.932-1.138C56.86,162.567,54.566,161.134,52.423,159.595"/>
		<path clip-path="url(#SVGID_8_)" fill="#E7E7DE" d="M52.092,160.184c-2.199-1.552-4.229-3.2-4.838-3.675
			c-2.241-1.753-4.122-3.381-6.167-5.357c-0.676-0.649-1.33-1.205-1.921-1.882c-0.012-0.015-0.029-0.023-0.038-0.02
			c-0.008,0.003-0.005,0.017,0.011,0.033c0.587,0.678,1.232,1.246,1.913,1.914c0.667,0.657,1.237,1.236,1.91,1.874
			c1.372,1.309,2.597,2.458,4.114,3.665c0.297,0.241,3.185,2.649,6.237,4.654c3.028,2.048,6.148,3.654,6.201,3.571
			c0.025-0.035-1.885-1.085-1.974-1.16C56.623,163.217,54.28,161.754,52.092,160.184"/>
		<path clip-path="url(#SVGID_8_)" fill="#E7E7DE" d="M51.761,160.773c-2.244-1.583-4.316-3.264-4.937-3.75
			c-2.287-1.79-4.206-3.452-6.292-5.469c-0.69-0.663-1.355-1.232-1.959-1.923c-0.013-0.015-0.03-0.023-0.039-0.021
			c-0.007,0.003-0.004,0.017,0.011,0.034c0.601,0.692,1.258,1.273,1.952,1.954c0.681,0.672,1.263,1.262,1.95,1.914
			c1.401,1.335,2.651,2.507,4.2,3.739c0.302,0.246,3.249,2.701,6.362,4.747c3.091,2.089,6.276,3.729,6.33,3.646
			c0.026-0.034-1.925-1.106-2.016-1.183C56.386,163.866,53.993,162.375,51.761,160.773"/>
		<path clip-path="url(#SVGID_8_)" fill="#E7E7DE" d="M51.43,161.362c-2.29-1.614-4.404-3.329-5.036-3.824
			c-2.332-1.827-4.289-3.523-6.416-5.582c-0.704-0.677-1.382-1.259-1.998-1.963c-0.014-0.016-0.03-0.025-0.039-0.022
			c-0.009,0.003-0.005,0.017,0.01,0.034c0.614,0.707,1.284,1.299,1.992,1.995c0.694,0.686,1.289,1.288,1.989,1.952
			c1.43,1.362,2.705,2.556,4.284,3.813c0.309,0.252,3.315,2.755,6.49,4.841c1.579,1.052,3.174,2.027,4.391,2.692
			c1.213,0.676,2.038,1.067,2.066,1.029c0.027-0.033-1.964-1.128-2.056-1.205C56.15,164.516,53.708,162.995,51.43,161.362"/>
		<path clip-path="url(#SVGID_8_)" fill="#DD8441" d="M95.752,291.698c-4.441-0.457-8.397-3.467-9.602-7.255
			c-1.822-5.738,2.538-13.674,11.277-16.033c0.981-3.521,8.165-31.048-9.419-54.201c-2.617-3.447-17.179-22.619-41.539-22.569
			c-20.457,0.042-39.756,13.624-41.932,24.425c-0.318,1.584-1.326,8.353-3.572,18.883c-0.403,1.889-0.746,3.43-0.966,4.405
			c6.954-4.54,13.908-9.08,20.861-13.62c0.056-6.098,4.854-10.407,9.346-10.083c3.204,0.232,6.175,2.818,7.43,6.435
			c0.141,3.994,0.283,7.988,0.426,11.981c-5.999,1.381-11.339,4.944-14.579,9.438c-2.798,3.884-2.799,6.755-6,25.371
			c-1.095,6.368-2.034,11.494-2.607,14.578c0.774-0.64,1.55-1.28,2.325-1.92c1.049-4.157,2.098-8.315,3.147-12.473
			c0.998-2.548,2.255-3.686,3.512-4.091c1.996-0.642,3.538,0.707,6.876,1.413c2.644,0.558,5.005,0.415,6.801,0.124
			c-3.228,1.497-6.458,2.995-9.687,4.492c-2.13,0.962-4.26,1.923-6.389,2.885c-1.055,5.563-2.109,11.126-3.163,16.689
			c-0.79,3.147-1.58,6.296-2.37,9.443c3.101-0.965,7.977-2.726,13.448-5.869c9.887-5.682,12.545-10.612,19.739-12.265
			c3.356-0.77,8.607-1.036,15.915,2.271c-6.112-5.963-6.789-9.889-6.244-12.389c0.546-2.504,2.232-3.19,4.597-6.985
			c2.008-3.224,4.019-7.906,4.144-11.397c0.307-8.604-10.519-19.122-22.648-19.892c-0.939-0.061-1.874-0.054-2.802,0.002
			l0.575-11.782c4.952-1.237,14.597-2.687,23.997,2.05c16.254,8.189,19.032,28.459,19.184,29.708
			c1.982,16.294-7.55,26.243-0.953,35.012c0.714,0.948,3.699,4.917,8.797,5.679c4.98,0.744,8.782-2.051,9.151-2.331
			c2.716-2.063,3.791-4.712,4.166-5.806C104.646,289.944,100.249,292.16,95.752,291.698"/>
		<g opacity="0.43" clip-path="url(#SVGID_8_)">
			<g>
				<defs>
					<rect id="SVGID_21_" x="2.708" y="224.564" width="17.299" height="11.69"/>
				</defs>
				<clipPath id="SVGID_22_">
					<use xlink:href="#SVGID_21_"  overflow="visible"/>
				</clipPath>
				<polygon clip-path="url(#SVGID_22_)" fill="#F6FF9A" points="2.708,236.254 20.007,224.565 4.56,228.127 				"/>
			</g>
		</g>
		<g opacity="0.43" clip-path="url(#SVGID_8_)">
			<g>
				<defs>
					<rect id="SVGID_23_" x="4.795" y="216.699" width="14.953" height="9.759"/>
				</defs>
				<clipPath id="SVGID_24_">
					<use xlink:href="#SVGID_23_"  overflow="visible"/>
				</clipPath>
				<path clip-path="url(#SVGID_24_)" fill="#F6FF9A" d="M4.795,226.458l14.953-3.015c-4.431-2.248-8.861-4.496-13.292-6.745
					C5.903,219.952,5.35,223.206,4.795,226.458"/>
			</g>
		</g>
		<g opacity="0.43" clip-path="url(#SVGID_8_)">
			<g>
				<defs>
					<rect id="SVGID_25_" x="7.101" y="215.991" width="16.023" height="6.401"/>
				</defs>
				<clipPath id="SVGID_26_">
					<use xlink:href="#SVGID_25_"  overflow="visible"/>
				</clipPath>
				<polygon clip-path="url(#SVGID_26_)" fill="#F6FF9A" points="20.002,222.392 23.124,217.078 7.101,215.991 				"/>
			</g>
		</g>
		<g opacity="0.43" clip-path="url(#SVGID_8_)">
			<g>
				<defs>
					<rect id="SVGID_27_" x="6.87" y="207.697" width="17.297" height="8.519"/>
				</defs>
				<clipPath id="SVGID_28_">
					<use xlink:href="#SVGID_27_"  overflow="visible"/>
				</clipPath>
				<path clip-path="url(#SVGID_28_)" fill="#F6FF9A" d="M9.042,210.949c-0.801,1.389-1.522,2.739-2.173,4.041
					c5.766,0.407,11.531,0.816,17.297,1.226c-4.381-2.839-8.762-5.679-13.143-8.518C10.365,208.72,9.702,209.804,9.042,210.949"/>
			</g>
		</g>
		<g opacity="0.43" clip-path="url(#SVGID_8_)">
			<g>
				<defs>
					<rect id="SVGID_29_" x="12.29" y="201.61" width="12.982" height="13.833"/>
				</defs>
				<clipPath id="SVGID_30_">
					<use xlink:href="#SVGID_29_"  overflow="visible"/>
				</clipPath>
				<path clip-path="url(#SVGID_30_)" fill="#F6FF9A" d="M15.786,203.39c-1.889,1.339-2.958,2.924-3.496,3.87
					c4.327,2.729,8.655,5.455,12.982,8.183c-1.905-4.61-3.81-9.222-5.715-13.833C18.609,201.87,17.223,202.372,15.786,203.39"/>
			</g>
		</g>
		<g opacity="0.43" clip-path="url(#SVGID_8_)">
			<g>
				<defs>
					<rect id="SVGID_31_" x="20.608" y="200.788" width="10.438" height="14.432"/>
				</defs>
				<clipPath id="SVGID_32_">
					<use xlink:href="#SVGID_31_"  overflow="visible"/>
				</clipPath>
				<path clip-path="url(#SVGID_32_)" fill="#F6FF9A" d="M25.882,215.219c0.507-0.339,1.478-0.89,2.818-1.063
					c0.989-0.128,1.813-0.004,2.346,0.121c-3.479-4.496-6.959-8.993-10.438-13.489C22.367,205.598,24.125,210.409,25.882,215.219"/>
			</g>
		</g>
		<g opacity="0.43" clip-path="url(#SVGID_8_)">
			<g>
				<defs>
					<rect id="SVGID_33_" x="21.203" y="195.286" width="11.155" height="19.289"/>
				</defs>
				<clipPath id="SVGID_34_">
					<use xlink:href="#SVGID_33_"  overflow="visible"/>
				</clipPath>
				<path clip-path="url(#SVGID_34_)" fill="#F6FF9A" d="M26.522,197.354c-2.039,0.896-3.813,1.858-5.319,2.778
					c3.717,4.814,7.436,9.628,11.154,14.442c-0.033-6.429-0.067-12.859-0.102-19.288C30.536,195.777,28.596,196.442,26.522,197.354"
					/>
			</g>
		</g>
		<g opacity="0.43" clip-path="url(#SVGID_8_)">
			<g>
				<defs>
					<rect id="SVGID_35_" x="29.127" y="235.535" width="35.824" height="26.469"/>
				</defs>
				<clipPath id="SVGID_36_">
					<use xlink:href="#SVGID_35_"  overflow="visible"/>
				</clipPath>
				<path clip-path="url(#SVGID_36_)" fill="#F6FF9A" d="M57.645,239.852c-6.584-5.097-14.197-4.37-16.441-4.156
					c-5.641,0.539-9.812,2.846-12.078,4.359c12.156-3.955,23.897-0.831,28.844,5.518c4.411,5.66,4.915,12.693,4.915,12.693
					c0.111,1.542,0.039,2.834-0.049,3.737c0.686-1.281,3.139-6.224,1.634-12.299C63.1,244.167,59.297,241.132,57.645,239.852"/>
			</g>
		</g>
		<path clip-path="url(#SVGID_8_)" fill="#DA7A16" d="M86.23,265.611c-0.492,4.656-1.178,8.999-1.97,12.998
			c0.845-1.836,2.721-5.237,6.473-8.013c2.283-1.689,4.509-2.59,6.119-3.088l-9.963-10.618
			C86.763,259.668,86.551,262.579,86.23,265.611"/>
		<g opacity="0.43" clip-path="url(#SVGID_8_)">
			<g>
				<defs>
					<rect id="SVGID_37_" x="45.473" y="194.995" width="52.43" height="69.035"/>
				</defs>
				<clipPath id="SVGID_38_">
					<use xlink:href="#SVGID_37_"  overflow="visible"/>
				</clipPath>
				<path clip-path="url(#SVGID_38_)" fill="#F6FF9A" d="M45.725,194.995l-0.252,21.522c3.669-0.396,14.998-1.133,25.855,6.021
					c17.135,11.291,17.613,32.037,17.625,33.876l7.096,7.615c0.81-2.886,6.75-25.568-8.076-46.324
					C72.779,196.435,48.572,195.101,45.725,194.995"/>
			</g>
		</g>
		<g opacity="0.29" clip-path="url(#SVGID_8_)">
			<g>
				<defs>
					<rect id="SVGID_39_" x="185.058" width="157.578" height="244.569"/>
				</defs>
				<clipPath id="SVGID_40_">
					<use xlink:href="#SVGID_39_"  overflow="visible"/>
				</clipPath>
				<path clip-path="url(#SVGID_40_)" d="M335.663,138.602c-5.238-5.617-12.584-7.049-16.932-7.481
					c-4.736-2.231-9.473-4.463-14.211-6.694c0.057-0.202,0.114-0.409,0.168-0.609c-7.568-4.471-14.803-8.744-21.723-12.831
					c-0.011,0.015-0.024,0.032-0.034,0.048c-0.225-0.258-0.457-0.519-0.671-0.775c-0.349-4.974-0.698-9.949-1.046-14.923
					c1.053-0.738,2.088-1.577,3.078-2.541c5.626-5.477,7.26-12.26,8.33-17.943c0.412-2.186,0.801-4.249,1.163-6.21
					c3.049-1.793,4.818-6.192,4.155-9.68c-0.181-0.955-0.645-2.337-1.352-3.29c0.822-3.323,1.156-6.454,1.213-9.236h0.758
					c1.87,0,3.398-1.529,3.398-3.398v-1.132v-0.001c0-1.868-1.528-3.397-3.398-3.397h-1.337c-0.423-2.478-0.917-3.934-0.917-3.934
					c-0.06-0.174-0.13-0.34-0.191-0.512c-0.015-0.084-0.025-0.169-0.039-0.253c-0.021-0.122-0.04-0.243-0.062-0.363
					c-0.034-0.192-0.069-0.384-0.104-0.574c-0.021-0.112-0.042-0.224-0.064-0.336c-0.041-0.206-0.085-0.411-0.13-0.616
					c-0.021-0.094-0.04-0.19-0.062-0.284c-0.056-0.243-0.113-0.484-0.175-0.724c-0.013-0.056-0.025-0.112-0.041-0.168
					c-0.153-0.608-0.324-1.209-0.51-1.804c-0.011-0.034-0.022-0.068-0.034-0.102c-0.081-0.258-0.165-0.516-0.252-0.772
					c-0.021-0.063-0.044-0.126-0.065-0.19c-0.079-0.226-0.159-0.452-0.243-0.676c-0.026-0.073-0.055-0.145-0.081-0.218
					c-0.082-0.215-0.165-0.43-0.251-0.644c-0.029-0.073-0.06-0.146-0.089-0.22c-0.087-0.214-0.178-0.427-0.27-0.64
					c-0.028-0.067-0.058-0.136-0.087-0.204c-0.097-0.22-0.197-0.44-0.298-0.658c-0.027-0.057-0.052-0.114-0.078-0.171
					c-0.113-0.239-0.228-0.475-0.345-0.711c-0.013-0.027-0.025-0.053-0.038-0.079c1.345-2.87,0.757-6.197-1.379-8.177
					c-2.05-1.901-4.688-1.786-5.844-1.619c-0.037-0.035-0.075-0.069-0.112-0.104c-0.231-0.219-0.464-0.435-0.7-0.648
					c-0.048-0.043-0.095-0.087-0.144-0.13c-0.275-0.246-0.556-0.486-0.837-0.723c-0.059-0.049-0.117-0.096-0.177-0.145
					c-0.248-0.205-0.499-0.406-0.753-0.605c-0.05-0.04-0.101-0.081-0.152-0.121c-0.296-0.228-0.595-0.451-0.896-0.67
					c-0.053-0.038-0.107-0.076-0.161-0.114c-0.268-0.192-0.54-0.381-0.813-0.566c-0.054-0.036-0.105-0.071-0.157-0.106
					c-0.316-0.21-0.633-0.415-0.955-0.616c-0.045-0.027-0.091-0.055-0.136-0.083c-0.291-0.179-0.585-0.354-0.882-0.525
					c-0.053-0.03-0.104-0.06-0.156-0.091c-0.334-0.19-0.672-0.376-1.013-0.555c-0.034-0.018-0.068-0.036-0.102-0.053
					c-0.316-0.166-0.635-0.326-0.956-0.482c-0.051-0.025-0.102-0.05-0.154-0.074c-0.353-0.17-0.71-0.334-1.069-0.493
					c-0.02-0.008-0.038-0.016-0.059-0.024c-0.343-0.15-0.688-0.294-1.035-0.433c-0.05-0.02-0.099-0.04-0.147-0.059
					c-0.372-0.147-0.746-0.289-1.124-0.423c-0.003-0.001-0.005-0.002-0.008-0.003c-0.369-0.131-0.742-0.255-1.117-0.375
					c-0.049-0.015-0.097-0.031-0.146-0.046c-0.765-0.24-1.539-0.454-2.324-0.642c-0.049-0.013-0.1-0.024-0.149-0.036
					c-0.395-0.093-0.792-0.182-1.192-0.261c-0.001-0.002-0.001-0.004-0.002-0.006c-0.076-0.171-0.158-0.338-0.244-0.502
					c-0.002-0.002-0.003-0.005-0.004-0.007c-0.088-0.164-0.181-0.325-0.277-0.481c-0.001-0.002-0.003-0.005-0.005-0.008
					c-0.098-0.155-0.198-0.306-0.306-0.453c-0.004-0.004-0.007-0.009-0.01-0.012c-0.104-0.145-0.214-0.286-0.328-0.422
					c-0.006-0.007-0.012-0.015-0.018-0.021c-0.112-0.133-0.227-0.261-0.346-0.385c-0.012-0.011-0.021-0.022-0.033-0.034
					c-0.115-0.118-0.233-0.233-0.355-0.344c-0.017-0.016-0.036-0.031-0.053-0.046c-0.118-0.105-0.236-0.206-0.359-0.303
					c-0.024-0.02-0.052-0.039-0.078-0.06c-0.116-0.089-0.233-0.176-0.354-0.259c-0.036-0.024-0.074-0.047-0.111-0.071
					c-0.112-0.075-0.226-0.148-0.343-0.216c-0.049-0.028-0.098-0.054-0.147-0.081c-0.107-0.06-0.217-0.12-0.326-0.174
					c-0.063-0.031-0.126-0.058-0.189-0.087c-0.1-0.046-0.201-0.093-0.303-0.135c-0.078-0.031-0.157-0.059-0.237-0.088
					c-0.09-0.033-0.18-0.068-0.271-0.098c-0.098-0.031-0.194-0.057-0.293-0.085c-0.076-0.021-0.152-0.046-0.23-0.065
					c-0.121-0.029-0.244-0.052-0.367-0.076c-0.056-0.011-0.111-0.025-0.169-0.034c-0.163-0.028-0.325-0.048-0.49-0.064
					c-0.019-0.002-0.038-0.006-0.057-0.007c-0.187-0.017-0.375-0.027-0.563-0.03c-0.044,0-0.086,0.004-0.129,0.004v0.001
					c-3.221,0.018-6.034,2.167-6.903,4.63c-6.829,1.343-12.957,4.638-17.779,9.281c-0.891-0.172-3.894-0.549-6.173,1.563
					c-2.167,2.01-2.746,5.408-1.322,8.306c0.096-0.022,0.199-0.042,0.297-0.063c-2.227,4.475-3.542,9.485-3.695,14.787h-2.037
					c-1.868,0-3.398,1.529-3.398,3.398v1.132c0,1.869,1.53,3.398,3.398,3.398h6.736c-0.243,3.204-0.226,6.626,0.319,9.892
					c-0.472,0.864-0.788,1.883-0.93,2.634c-0.693,3.644,1.265,8.294,4.569,9.915c0.29,1.699,0.597,3.474,0.918,5.335
					c0.846,4.895,2.142,11.109,7.049,16.661c1.432,1.62,2.983,2.958,4.572,4.077c-0.357,5.103-0.715,10.206-1.073,15.309
					c-0.247,0.295-0.514,0.596-0.773,0.895c-0.039-0.055-0.083-0.114-0.12-0.168c-6.92,4.087-14.154,8.36-21.723,12.831
					c0.061,0.225,0.126,0.458,0.189,0.687l-14.045,6.616c-4.346,0.432-11.691,1.864-16.93,7.481
					c-3.497,3.75-5.401,8.782-6.497,31.106c-0.33,6.704-0.629,15.879-0.516,26.874c10.278-0.018,20.557-0.033,30.834-0.05
					l-29.728,0.148c-0.077,5.92,0.296,13.055,1.7,21.016c1.153,6.542,2.762,12.286,4.429,17.128
					c14.51,2.235,29.695,4.184,45.516,5.738c29.28,2.877,56.838,4.024,82.353,4.007c3.907-4.103,8.637-9.948,12.699-17.718
					c6.273-11.997,8.109-23.132,8.683-30.171l-24.509-0.118h0.211c8.438,0.04,16.874,0.079,25.312,0.118
					c0.176-11.081-0.104-20.3-0.422-26.972C341.09,147.237,339.062,142.246,335.663,138.602"/>
			</g>
		</g>
		<path clip-path="url(#SVGID_8_)" fill="#FFCEA1" d="M275.82,111.344c-0.5-7.141-1-14.283-1.501-21.424h-33.76
			c-0.5,7.141-1.001,14.283-1.501,21.424c-1.602,1.915-3.489,3.918-5.701,5.904c-6.334,5.688-12.87,9.014-17.916,10.995
			l40.223,13.002v1.148l1.775-0.574l1.775,0.574v-1.148l40.223-13.002c-5.047-1.981-11.582-5.307-17.916-10.995
			C279.309,115.263,277.424,113.259,275.82,111.344"/>
		<path clip-path="url(#SVGID_8_)" fill="#C54D00" d="M329.224,139.686c-5.239-5.617-12.585-7.049-16.932-7.481
			c-9.056-4.266-18.112-8.531-27.169-12.797c-9.228,7.486-18.456,14.972-27.684,22.457c-9.228-7.485-18.456-14.971-27.685-22.457
			c-9.055,4.266-18.112,8.531-27.168,12.797c-4.346,0.432-11.692,1.864-16.931,7.481c-3.497,3.75-5.401,8.782-6.496,31.106
			c-0.331,6.703-0.63,15.879-0.516,26.873c10.277-0.016,20.556-0.033,30.834-0.049c0.393,7.612,0.787,15.225,1.181,22.838
			c15.437-0.086,30.875-0.172,46.313-0.257v0.01c0.155-0.001,0.313-0.003,0.469-0.005c0.156,0.002,0.312,0.004,0.469,0.005v-0.01
			c15.224-0.112,30.45-0.223,45.674-0.334c0.197-7.416,0.395-14.831,0.591-22.247c10.656,0.049,21.313,0.099,31.97,0.148
			c0.176-11.08-0.105-20.301-0.422-26.973C334.65,148.322,332.621,143.33,329.224,139.686"/>
		<g opacity="0.43" clip-path="url(#SVGID_8_)">
			<g>
				<defs>
					<rect id="SVGID_41_" x="182.169" y="134.579" width="20.678" height="21.072"/>
				</defs>
				<clipPath id="SVGID_42_">
					<use xlink:href="#SVGID_41_"  overflow="visible"/>
				</clipPath>
				<path clip-path="url(#SVGID_42_)" fill="#FFFFFF" d="M189.459,139.114c-7.461,6.15-7.321,15.387-7.284,16.537
					c0.877-2.68,2.44-6.34,5.315-10.04c5.369-6.911,12.123-9.862,15.357-11.025C201.119,134.543,194.937,134.599,189.459,139.114"/>
			</g>
		</g>
		<g opacity="0.28" clip-path="url(#SVGID_8_)">
			<g>
				<defs>
					<rect id="SVGID_43_" x="304.028" y="155.331" width="7.29" height="42.285"/>
				</defs>
				<clipPath id="SVGID_44_">
					<use xlink:href="#SVGID_43_"  overflow="visible"/>
				</clipPath>
				<path clip-path="url(#SVGID_44_)" fill="#FFFFFF" d="M304.028,197.616h7.29c-2.146-14.095-4.294-28.19-6.441-42.285
					C304.594,169.426,304.311,183.521,304.028,197.616"/>
			</g>
		</g>
		<path clip-path="url(#SVGID_8_)" fill="#FFCEA1" d="M289.586,56.135c1.044-8.196,0.854-13.904-1.392-18.967
			c-0.396-0.897-10.198-22.071-30.348-22.445c-15.687-0.291-27.212,12.218-31.614,22.445c-1.907,4.433-1.944,10.092-0.845,18.679
			c-1.288,0.616-2.108,2.844-2.365,4.2c-0.693,3.644,1.266,8.294,4.569,9.915c0.291,1.698,0.597,3.473,0.919,5.335
			c0.845,4.894,2.141,11.109,7.049,16.661c2.504,2.833,5.371,4.829,8.173,6.237c-1.326,2.455-2.928,6.287-3.047,11.065
			c-0.279,11.229,7.718,24.481,16.607,24.35c8.712-0.129,15.872-13.082,16.073-23.71c0.093-4.826-1.26-8.755-2.392-11.265
			c2.346-1.117,4.714-2.648,6.878-4.755c5.627-5.477,7.259-12.261,8.331-17.943c0.412-2.187,0.799-4.249,1.163-6.21
			c3.048-1.794,4.818-6.193,4.156-9.68C291.275,58.855,290.615,56.988,289.586,56.135"/>
		<path clip-path="url(#SVGID_8_)" fill="#9F5E26" d="M260.399,12.489c-4.121-0.856-11.911-2.474-16.875,2.015
			c-1.647,1.49-2.53,3.243-3.022,4.533c-1.318-0.354-3.253-0.65-5.289,0c-4.618,1.473-6.416,6.743-8.931,14.482
			c0,0-4.604,14.159-2.015,25.521c0.191,0.837,0.584,2.479,1.879,4.071c1.122,1.379,2.44,2.128,3.274,2.519
			c-1.471-22.245,2.18-28.572,5.928-30.097c5.633-2.292,10.855,6.538,22.499,6.045c10.737-0.455,14.815-8.262,20.149-6.381
			c3.846,1.357,7.718,7.531,7.387,29.215c0.82-0.644,1.997-1.727,3.022-3.358c0,0,1.098-1.747,1.68-4.029
			c3.022-11.873-0.22-21.366-0.22-21.366C283.765,17.794,263.678,13.17,260.399,12.489"/>
		<path clip-path="url(#SVGID_8_)" fill="#4798C3" d="M295.184,38.509h-2.037c-0.556-19.172-16.27-34.544-35.575-34.544
			c-19.306,0-35.021,15.372-35.575,34.544h-2.037c-1.869,0-3.397,1.529-3.397,3.398v1.132c0,1.869,1.528,3.398,3.397,3.398h75.224
			c1.867,0,3.396-1.529,3.396-3.398v-1.132C298.58,40.039,297.051,38.509,295.184,38.509"/>
		<path clip-path="url(#SVGID_8_)" fill="#6CEAFF" d="M257.7,0.001c-3.475-0.042-6.504,2.413-7.173,5.097
			c-0.431,1.727,0.249,3.022,2.403,7.361c0.998,2.009,2.635,5.326,4.719,9.627c1.488-2.755,2.998-5.904,4.394-9.438
			c1.076-2.725,1.94-5.321,2.642-7.739C263.503,1.975,260.731,0.039,257.7,0.001"/>
		<path clip-path="url(#SVGID_8_)" fill="#6CEAFF" d="M281.623,13.97c-1.76,1.055-3.785,2.467-5.853,4.341
			c-3.079,2.793-5.193,5.657-6.606,7.929c2.724-1.347,7.333-3.147,13.214-3.209c2.708-0.029,5.071,0.317,6.983,0.754
			c1.426-2.898,0.848-6.295-1.32-8.305C285.436,13.064,281.884,13.904,281.623,13.97"/>
		<path clip-path="url(#SVGID_8_)" fill="#6CEAFF" d="M238.986,18.312c-2.066-1.875-4.092-3.287-5.852-4.342
			c-0.26-0.066-3.812-0.905-6.418,1.51c-2.167,2.01-2.746,5.407-1.321,8.306c1.912-0.437,4.277-0.784,6.985-0.755
			c5.88,0.062,10.49,1.863,13.213,3.209C244.18,23.969,242.065,21.104,238.986,18.312"/>
		<g opacity="0.17" clip-path="url(#SVGID_8_)">
			<g>
				<defs>
					<rect id="SVGID_45_" x="257.571" width="41.01" height="46.437"/>
				</defs>
				<clipPath id="SVGID_46_">
					<use xlink:href="#SVGID_45_"  overflow="visible"/>
				</clipPath>
				<path clip-path="url(#SVGID_46_)" d="M295.184,38.509h-2.037c-0.154-5.328-1.48-10.361-3.728-14.853
					c1.347-2.87,0.757-6.196-1.379-8.177c-2.05-1.901-4.686-1.786-5.843-1.618c-4.79-4.593-10.863-7.857-17.626-9.206
					c-1.237-2.79-3.928-4.618-6.871-4.654c-0.043-0.001-0.085,0.003-0.129,0.004v46.432h37.612c1.867,0,3.396-1.529,3.396-3.398
					v-1.133C298.58,40.038,297.051,38.509,295.184,38.509"/>
			</g>
		</g>
		<path clip-path="url(#SVGID_8_)" fill="#285575" d="M291.139,33.413h-67.135c-1.401,0-2.548,1.146-2.548,2.548
			c0,1.402,1.147,2.549,2.548,2.549h67.135c1.401,0,2.549-1.147,2.549-2.549C293.688,34.559,292.54,33.413,291.139,33.413"/>
		<path clip-path="url(#SVGID_8_)" fill="#285575" d="M257.047,27.937c-4.433,0-8.024,3.593-8.024,8.024
			c0,4.432,3.592,8.024,8.024,8.024c4.432,0,8.023-3.592,8.023-8.024C265.07,31.53,261.479,27.937,257.047,27.937"/>
		<path clip-path="url(#SVGID_8_)" fill="#6CEAFF" d="M257.047,30.204c-3.181,0-5.757,2.578-5.757,5.757
			c0,3.18,2.577,5.758,5.757,5.758c3.18,0,5.758-2.578,5.758-5.758C262.805,32.782,260.227,30.204,257.047,30.204"/>
		<path clip-path="url(#SVGID_8_)" fill="#285575" d="M293.688,122.207c-2.288,17.892-4.576,35.784-6.863,53.676
			c-19.79-0.214-39.579-0.428-59.369-0.643c-2.505-17.469-5.01-34.937-7.515-52.405l-11.098,6.115
			c2.199,18.639,4.4,37.278,6.599,55.918l-5.964,12.747l1.181,27.245c30.63,0.683,61.259,1.364,91.89,2.046
			c0.541-9.763,1.083-19.527,1.625-29.291l-7.4-11.143c3.102-19.282,6.204-38.563,9.306-57.844
			C301.948,126.488,297.817,124.348,293.688,122.207"/>
		<path clip-path="url(#SVGID_8_)" fill="#A1B0C7" d="M269.8,220.804c3.806,2.034,7.611,4.069,11.418,6.104
			c3.807-1.444,7.611-2.889,11.419-4.331c1.509-10.041,3.018-20.081,4.527-30.122c-9.646-0.656-19.294-1.313-28.939-1.969
			C268.748,200.592,269.274,210.699,269.8,220.804"/>
		<path clip-path="url(#SVGID_8_)" fill="#EFAC81" d="M301.64,219.666c-4.225-0.682-8.557-1.276-12.993-1.771
			c-28.805-3.212-55.151-1.422-77.988,2.56c34.363,8.399,68.727,16.799,103.089,25.199c3.906-4.104,8.635-9.949,12.699-17.718
			c6.273-11.997,8.109-23.133,8.683-30.171l-30.956-0.148C303.328,204.965,302.484,212.316,301.64,219.666"/>
		<path clip-path="url(#SVGID_8_)" fill="#FFCEA1" d="M213.932,220.551c-1.485-7.645-2.97-15.291-4.455-22.936l-29.729,0.147
			c-0.076,5.92,0.297,13.057,1.7,21.018c1.153,6.542,2.762,12.286,4.429,17.127c14.511,2.235,29.695,4.184,45.516,5.738
			c29.28,2.877,56.839,4.023,82.354,4.008c-19.606-6.252-40.694-12.172-63.196-17.425
			C238.004,225.3,225.786,222.758,213.932,220.551"/>
		<path clip-path="url(#SVGID_8_)" fill="#A1B0C7" d="M300.143,171.695l-13.804-2.828c-1.163-0.239-2.309,0.518-2.548,1.681
			c-0.238,1.162,0.52,2.309,1.682,2.547l13.803,2.829c1.163,0.237,2.309-0.52,2.548-1.681
			C302.062,173.08,301.305,171.934,300.143,171.695"/>
		<path clip-path="url(#SVGID_8_)" fill="#A1B0C7" d="M226.668,168.867l-13.803,2.828c-1.163,0.239-1.919,1.385-1.68,2.548
			c0.238,1.163,1.384,1.919,2.546,1.681l13.803-2.829c1.163-0.238,1.92-1.385,1.682-2.547
			C228.979,169.385,227.832,168.628,226.668,168.867"/>
		<path clip-path="url(#SVGID_8_)" fill="#285575" d="M293.497,196.072l-22.248-3.104c-0.642-0.089-1.238,0.361-1.328,1.003
			c-0.089,0.641,0.361,1.238,1.003,1.328l22.248,3.104c0.641,0.089,1.239-0.362,1.328-1.003
			C294.59,196.759,294.139,196.161,293.497,196.072"/>
		<polygon clip-path="url(#SVGID_8_)" fill="#285575" points="271.135,199.185 269.888,208.185 274.343,208.185 273.095,199.185 		
			"/>
		<path clip-path="url(#SVGID_8_)" fill="#285575" d="M272.115,196.533c-0.534,0-0.969,0.434-0.969,0.967
			c0,0.534,0.435,0.968,0.969,0.968c0.532,0,0.967-0.434,0.967-0.968C273.082,196.966,272.647,196.533,272.115,196.533"/>
		<g opacity="0.17" clip-path="url(#SVGID_8_)">
			<g>
				<defs>
					<rect id="SVGID_47_" x="206.55" y="163.95" width="98.24" height="55.986"/>
				</defs>
				<clipPath id="SVGID_48_">
					<use xlink:href="#SVGID_47_"  overflow="visible"/>
				</clipPath>
				<path clip-path="url(#SVGID_48_)" d="M256.396,213.198c-14.237,0.634-26.946,2.771-34.793,4.423
					c-5.018-17.89-10.036-35.779-15.054-53.671l2.953,33.715c1.404,7.296,2.806,14.592,4.208,21.888
					c-0.22,0.073-0.334,0.123-0.331,0.143c0.003,0.021,0.125,0.013,0.357-0.015c0.015,0.086,0.032,0.171,0.049,0.256
					c1.186-0.181,2.376-0.362,3.568-0.541c1.523-0.229,3.043-0.454,4.558-0.676c2.413-0.365,5.766-0.829,9.776-1.246
					c11.362-1.183,20-1.156,25.3-1.125c18.854,0.11,36.824,2.359,44.689,3.444c0.025-0.365,0.05-0.73,0.073-1.096l2.423-21.081
					l0.617-25.987l-7.548,44.037C286.417,213.869,272.506,212.48,256.396,213.198"/>
			</g>
		</g>
		<g opacity="0.24" clip-path="url(#SVGID_8_)">
			<g>
				<defs>
					<rect id="SVGID_49_" x="224.158" y="127.935" width="33.185" height="89.627"/>
				</defs>
				<clipPath id="SVGID_50_">
					<use xlink:href="#SVGID_49_"  overflow="visible"/>
				</clipPath>
				<path clip-path="url(#SVGID_50_)" fill="#FFFFFF" d="M231.873,217.562c4.122-0.423,8.445-0.766,12.957-0.997
					c4.1-0.21,8.054-0.314,11.849-0.332l0.665-60.022c-11.063-9.425-22.124-18.85-33.186-28.276
					C226.729,157.811,229.302,187.687,231.873,217.562"/>
			</g>
		</g>
		<g opacity="0.07" clip-path="url(#SVGID_8_)">
			<g>
				<defs>
					<rect id="SVGID_51_" x="257.571" y="0.415" width="78.789" height="245.652"/>
				</defs>
				<clipPath id="SVGID_52_">
					<use xlink:href="#SVGID_51_"  overflow="visible"/>
				</clipPath>
				<path clip-path="url(#SVGID_52_)" d="M329.388,140.1c-5.239-5.617-12.585-7.049-16.933-7.481
					c-2.103-0.991-4.207-1.982-6.31-2.973c0.032-0.201,0.063-0.402,0.096-0.603c-4.129-2.14-8.26-4.281-12.39-6.422
					c-0.05,0.389-0.101,0.776-0.15,1.165c-2.804-1.322-5.608-2.643-8.414-3.964c-0.169,0.137-0.337,0.273-0.505,0.41
					c-1.034-0.804-2.067-1.645-3.097-2.569c-2.212-1.986-4.1-3.99-5.701-5.905l-1.046-14.932c1.053-0.738,2.088-1.568,3.078-2.532
					c5.627-5.477,7.26-12.26,8.331-17.942c0.412-2.187,0.8-4.25,1.163-6.211c3.048-1.793,4.817-6.192,4.155-9.68
					c-0.182-0.957-0.646-2.341-1.355-3.294c0.931-3.763,1.236-7.274,1.222-10.315h3.815c1.868,0,3.396-1.529,3.396-3.398v-0.001
					v-1.132c0-1.869-1.528-3.398-3.396-3.398h-2.037c0-0.005-0.001-0.01-0.001-0.014c-0.009-0.31-0.033-0.616-0.05-0.924
					c0.362-0.441,0.592-0.997,0.592-1.61c0-0.804-0.385-1.516-0.973-1.983c-0.056-0.357-0.112-0.713-0.18-1.066
					c-0.046-0.245-0.098-0.488-0.149-0.73c-0.076-0.363-0.156-0.725-0.244-1.083c-0.06-0.243-0.121-0.483-0.187-0.724
					c-0.094-0.356-0.194-0.71-0.3-1.062c-0.07-0.233-0.141-0.465-0.215-0.696c-0.116-0.36-0.24-0.716-0.367-1.07
					c-0.078-0.215-0.154-0.432-0.235-0.645c-0.141-0.373-0.293-0.741-0.446-1.108c-0.079-0.189-0.155-0.379-0.237-0.566
					c-0.185-0.418-0.38-0.831-0.58-1.241c-0.053-0.109-0.101-0.222-0.155-0.331c0.042-0.091,0.067-0.186,0.105-0.278
					c0.111-0.261,0.22-0.523,0.3-0.789c0.029-0.099,0.043-0.199,0.068-0.298c0.067-0.273,0.137-0.546,0.175-0.821
					c0.013-0.104,0.011-0.207,0.021-0.31c0.027-0.27,0.053-0.54,0.049-0.808c-0.002-0.118-0.021-0.232-0.029-0.349
					c-0.016-0.251-0.029-0.503-0.07-0.748c-0.023-0.143-0.069-0.28-0.102-0.421c-0.05-0.213-0.091-0.429-0.16-0.635
					c-0.062-0.182-0.148-0.353-0.223-0.528c-0.067-0.156-0.121-0.317-0.199-0.467c-0.124-0.236-0.276-0.456-0.427-0.675
					c-0.055-0.077-0.096-0.163-0.152-0.238c-0.22-0.29-0.464-0.562-0.734-0.812c-0.006-0.005-0.013-0.009-0.02-0.016
					c-0.222-0.203-0.449-0.376-0.683-0.535c-0.059-0.041-0.117-0.081-0.178-0.12c-0.23-0.146-0.464-0.278-0.701-0.388
					c-0.047-0.022-0.093-0.039-0.14-0.059c-0.206-0.09-0.411-0.167-0.617-0.233c-0.059-0.019-0.117-0.04-0.175-0.057
					c-0.231-0.067-0.456-0.12-0.679-0.161c-0.064-0.013-0.126-0.021-0.189-0.031c-0.187-0.03-0.37-0.053-0.546-0.068
					c-0.047-0.005-0.094-0.011-0.14-0.014c-0.204-0.014-0.397-0.019-0.584-0.019c-0.063,0-0.122,0.001-0.185,0.002
					c-0.16,0.004-0.312,0.011-0.454,0.022c-0.05,0.004-0.095,0.008-0.143,0.012c-0.122,0.012-0.234,0.024-0.336,0.038
					c-0.023,0.003-0.054,0.006-0.075,0.009c-0.069-0.066-0.143-0.124-0.212-0.189c-0.456-0.431-0.924-0.848-1.404-1.255
					c-0.136-0.116-0.271-0.233-0.411-0.348c-0.563-0.464-1.14-0.915-1.731-1.344c-0.089-0.064-0.181-0.123-0.27-0.186
					c-0.526-0.376-1.065-0.735-1.614-1.082c-0.15-0.095-0.302-0.191-0.452-0.284c-0.633-0.386-1.275-0.758-1.933-1.105
					c-0.068-0.036-0.141-0.069-0.212-0.106c-0.601-0.313-1.215-0.606-1.838-0.885c-0.16-0.072-0.319-0.144-0.48-0.214
					c-0.693-0.299-1.395-0.581-2.108-0.836c-0.043-0.015-0.086-0.028-0.128-0.043c-0.678-0.238-1.368-0.453-2.064-0.651
					c-0.168-0.048-0.335-0.095-0.504-0.141c-0.746-0.2-1.498-0.384-2.262-0.537c0,0-0.001,0-0.002,0
					c-0.044-0.101-0.104-0.191-0.153-0.289c-0.106-0.218-0.215-0.436-0.34-0.641c-0.07-0.117-0.152-0.224-0.229-0.336
					c-0.136-0.198-0.27-0.395-0.419-0.578c-0.09-0.109-0.189-0.206-0.283-0.309c-0.155-0.169-0.309-0.339-0.477-0.493
					c-0.111-0.103-0.234-0.192-0.353-0.288c-0.164-0.135-0.325-0.273-0.5-0.393c-0.145-0.099-0.297-0.179-0.447-0.267
					c-0.163-0.097-0.321-0.201-0.491-0.285c-0.184-0.092-0.379-0.161-0.569-0.237c-0.147-0.058-0.287-0.127-0.438-0.175
					c-0.25-0.082-0.508-0.136-0.767-0.191c-0.101-0.021-0.195-0.055-0.295-0.071c-0.365-0.062-0.735-0.097-1.11-0.102
					c-0.043,0-0.086,0.004-0.129,0.004v0.001c-0.056,0.001-0.109,0.013-0.164,0.015v141.81l0.032-0.011l0.041,0.013
					c-0.014,0.011-0.028,0.022-0.041,0.033c-0.011-0.009-0.022-0.017-0.032-0.026V244.19c19.696,1.316,38.526,1.89,56.34,1.877
					c3.906-4.103,8.636-9.948,12.699-17.718c6.273-11.997,8.109-23.132,8.683-30.171l-30.956-0.148
					c10.656,0.05,21.313,0.099,31.969,0.148c0.176-11.08-0.104-20.3-0.421-26.972C334.814,148.736,332.785,143.744,329.388,140.1"/>
			</g>
		</g>
	</g>
</g>
</svg>
