<?xml version="1.0" encoding="utf-8"?>
<!-- Generator: Adobe Illustrator 16.0.0, SVG Export Plug-In . SVG Version: 6.00 Build 0)  -->
<!DOCTYPE svg PUBLIC "-//W3C//DTD SVG 1.1//EN" "http://www.w3.org/Graphics/SVG/1.1/DTD/svg11.dtd">
<svg version="1.1" id="Warstwa_1" xmlns="http://www.w3.org/2000/svg" xmlns:xlink="http://www.w3.org/1999/xlink" x="0px" y="0px"
	 width="448.855px" height="293.176px" viewBox="0 0 448.855 293.176" enable-background="new 0 0 448.855 293.176"
	 xml:space="preserve">
<g>
	<defs>
		<rect id="SVGID_1_" width="448.855" height="293.176"/>
	</defs>
	<clipPath id="SVGID_2_">
		<use xlink:href="#SVGID_1_"  overflow="visible"/>
	</clipPath>
	<g clip-path="url(#SVGID_2_)">
		<defs>
			<rect id="SVGID_3_" width="448.855" height="293.176"/>
		</defs>
		<clipPath id="SVGID_4_">
			<use xlink:href="#SVGID_3_"  overflow="visible"/>
		</clipPath>
		<g opacity="0.11" clip-path="url(#SVGID_4_)">
			<g>
				<defs>
					<rect id="SVGID_5_" x="323.975" y="155.537" width="124.881" height="122.66"/>
				</defs>
				<clipPath id="SVGID_6_">
					<use xlink:href="#SVGID_5_"  overflow="visible"/>
				</clipPath>
				<polygon clip-path="url(#SVGID_6_)" points="441.224,199.213 421.451,180.977 423.618,178.627 415.807,171.423 413.64,173.772 
					393.867,155.536 377.885,172.865 397.657,191.102 323.975,270.992 325.219,272.141 326.398,273.229 331.785,278.196 
					405.469,198.306 424.996,216.316 448.854,222.285 				"/>
			</g>
		</g>
		<g opacity="0.11" clip-path="url(#SVGID_4_)">
			<g>
				<defs>
					<rect id="SVGID_7_" x="239.84" y="94.209" width="110.01" height="179.074"/>
				</defs>
				<clipPath id="SVGID_8_">
					<use xlink:href="#SVGID_7_"  overflow="visible"/>
				</clipPath>
				<path clip-path="url(#SVGID_8_)" d="M322.105,148.793c-0.316-4.458-0.461-15.151,5.775-26.347
					c4.49-8.062,10.369-12.937,13.899-15.436l-29.201-6.401l-29.202-6.401c2.162,3.746,5.463,10.634,6.168,19.835
					c0.982,12.777-3.622,22.43-5.774,26.347l-38.43,17.118c-3.062,10.874-6.019,26.126-5.424,44.373
					c0.935,28.722,10.207,50.724,16.563,62.999c6.147,2.498,12.297,4.997,18.445,7.496c6.631,0.302,13.26,0.605,19.89,0.908
					c10.91-8.492,28.535-24.598,41.399-50.294c8.173-16.324,11.867-31.415,13.636-42.572L322.105,148.793z"/>
			</g>
		</g>
		<g opacity="0.11" clip-path="url(#SVGID_4_)">
			<g>
				<defs>
					<rect id="SVGID_9_" x="3.301" y="118.275" width="145.705" height="103.603"/>
				</defs>
				<clipPath id="SVGID_10_">
					<use xlink:href="#SVGID_9_"  overflow="visible"/>
				</clipPath>
				<path clip-path="url(#SVGID_10_)" d="M148.432,203.688c-0.792-1.806-2.601-3.986-7.004-6.712
					c-8.476-5.246-16.398-6.22-26.558-8.945c-11.848-3.181-22.134-5.939-29.514-12.29c-2.978-2.563-8.531-8.333-9.818-18.821
					c-3.952-3.199-7.904-6.398-11.856-9.597l-7.173-3.732l-24.244-12.615l-6.483-4.975l-2.845-7.726l-2.488,7.137l-2.894-1.506
					l-3.359,13.524l-2.122-1.105L3.3,151.301l2.626,10.975l3.434,4.236l29.101,15.143c1.93,1.004,3.86,2.008,5.79,3.012
					l14.663,4.201c9.328-4.964,17.241-3.729,21.048-2.761c9.436,2.398,17.599,9.238,27.002,17.116
					c8.063,6.756,13.408,12.685,22.568,16.615c4.759,2.041,7.582,2.272,9.516,1.883c2.668-0.535,3.974-2.315,4.903-3.583
					c1.171-1.596,1.624-3.206,1.815-4.378c0.85-0.83,1.909-2.125,2.544-4C148.815,208.272,149.523,206.181,148.432,203.688
					 M139.44,210.468c-0.869,1.67-3.647,1.946-6.205,0.615c-2.557-1.33-3.926-3.763-3.056-5.435c0.869-1.67,3.647-1.945,6.204-0.614
					C138.94,206.364,140.31,208.798,139.44,210.468"/>
			</g>
		</g>
		<path clip-path="url(#SVGID_4_)" fill="#E5B772" d="M344.947,178.146l-27.745-31.625c-0.317-4.458-0.461-15.151,5.775-26.347
			c4.49-8.062,10.37-12.938,13.9-15.436l-29.202-6.401l-29.201-6.401c2.161,3.746,5.462,10.634,6.169,19.834
			c0.98,12.778-3.624,22.431-5.776,26.348l-38.43,17.118c-3.062,10.874-6.018,26.126-5.424,44.373
			c0.936,28.72,10.206,50.722,16.564,62.999c6.148,2.498,12.297,4.997,18.445,7.495c6.63,0.303,13.26,0.605,19.89,0.908
			c10.909-8.491,28.535-24.598,41.399-50.294C339.484,204.396,343.178,189.304,344.947,178.146"/>
		<g opacity="0.55" clip-path="url(#SVGID_4_)">
			<g>
				<defs>
					<rect id="SVGID_11_" x="283.2" y="95.575" width="47.864" height="18.695"/>
				</defs>
				<clipPath id="SVGID_12_">
					<use xlink:href="#SVGID_11_"  overflow="visible"/>
				</clipPath>
				<path clip-path="url(#SVGID_12_)" fill="#FFFFFF" d="M287.694,106.563L283.2,95.575l47.863,10.492
					c-2.354,2.735-4.707,5.469-7.062,8.204L287.694,106.563z"/>
			</g>
		</g>
		<g opacity="0.46" clip-path="url(#SVGID_4_)">
			<g>
				<defs>
					<rect id="SVGID_13_" x="272.655" y="199.478" width="63.59" height="66.444"/>
				</defs>
				<clipPath id="SVGID_14_">
					<use xlink:href="#SVGID_13_"  overflow="visible"/>
				</clipPath>
				<path clip-path="url(#SVGID_14_)" fill="#FFFFFF" d="M272.655,264.926l18.189,0.996c7.848-6.709,17.796-16.579,27.098-30.187
					c9.315-13.629,14.9-26.5,18.303-36.259c-5.157,9.327-12.439,20.485-22.631,31.857
					C299.106,247.524,284.059,258.172,272.655,264.926"/>
			</g>
		</g>
		<g opacity="0.11" clip-path="url(#SVGID_4_)">
			<g>
				<defs>
					<rect id="SVGID_15_" x="196.751" y="1.112" width="86.564" height="292.064"/>
				</defs>
				<clipPath id="SVGID_16_">
					<use xlink:href="#SVGID_15_"  overflow="visible"/>
				</clipPath>
				<path clip-path="url(#SVGID_16_)" d="M245.385,218.05l-0.983-33.01l-0.876,0.026c-1.787-59.919-3.571-119.838-5.357-179.757
					c-0.463-2.881-3.154-4.633-5.472-4.104c-1.813,0.414-3.258,2.197-3.38,4.368l5.357,179.757l-0.978,0.029
					c0.328,11.003,0.656,22.006,0.984,33.009c-12.643,0.377-25.287,0.753-37.93,1.13c2.156,9.913,6.599,24.758,16.383,40.629
					c9.851,15.98,21.209,26.664,29.133,33.049c7.495-6.933,17.815-18.071,26.528-34.041c9.075-16.633,12.829-31.949,14.52-42.215
					C270.672,217.297,258.028,217.673,245.385,218.05"/>
			</g>
		</g>
		<g opacity="0.11" clip-path="url(#SVGID_4_)">
			<g>
				<defs>
					<rect id="SVGID_17_" x="40.222" y="233.192" width="116.119" height="44.041"/>
				</defs>
				<clipPath id="SVGID_18_">
					<use xlink:href="#SVGID_17_"  overflow="visible"/>
				</clipPath>
				<path clip-path="url(#SVGID_18_)" d="M149.854,240.912h-9.724c-3.894-4.714-9.783-7.72-16.375-7.72
					c-5.735,0-10.929,2.284-14.749,5.98l0.01-0.022l-7.153-0.64l-1.066,1.188v1.569l2.76,6.636c-0.662,2.055-1.029,4.24-1.029,6.515
					c0,9.054,5.67,16.779,13.651,19.83c0.176,0.139,0.372,0.254,0.562,0.375H42.253v-5.708h-2.031v5.708v1.102h2.031h76.743v1.508
					h10.439v-1.588h20.419c3.583,0,6.487-2.903,6.487-6.486v-21.761C156.341,243.815,153.437,240.912,149.854,240.912"/>
			</g>
		</g>
		
			<rect x="365.285" y="154.231" transform="matrix(0.7352 0.6779 -0.6779 0.7352 248.6173 -192.4444)" clip-path="url(#SVGID_4_)" fill="#AF5200" width="10.627" height="135.452"/>
		<polygon clip-path="url(#SVGID_4_)" fill="#65615E" points="374.687,170.013 390.669,152.683 438.025,196.358 445.656,219.432 
			421.799,213.464 		"/>
		<polygon clip-path="url(#SVGID_4_)" fill="#FFE793" points="432.166,197.618 436.855,197.596 442.874,216.867 		"/>
		
			<rect x="381.974" y="174.556" transform="matrix(0.7351 0.678 -0.678 0.7351 228.0324 -233.2797)" clip-path="url(#SVGID_4_)" fill="#FFE793" width="61.104" height="1.199"/>
		<g opacity="0.61" clip-path="url(#SVGID_4_)">
			<g>
				<defs>
					<rect id="SVGID_19_" x="321.735" y="189.133" width="75.146" height="81.242"/>
				</defs>
				<clipPath id="SVGID_20_">
					<use xlink:href="#SVGID_19_"  overflow="visible"/>
				</clipPath>
				
					<rect x="358.313" y="175.413" transform="matrix(0.735 0.6781 -0.6781 0.735 251.0336 -182.7583)" clip-path="url(#SVGID_20_)" fill="#7F3200" width="1.993" height="108.681"/>
			</g>
		</g>
		<g opacity="0.76" clip-path="url(#SVGID_4_)">
			<g>
				<defs>
					<rect id="SVGID_21_" x="325.804" y="192.886" width="75.147" height="81.241"/>
				</defs>
				<clipPath id="SVGID_22_">
					<use xlink:href="#SVGID_21_"  overflow="visible"/>
				</clipPath>
				
					<rect x="362.381" y="179.166" transform="matrix(0.735 0.6781 -0.6781 0.735 254.6569 -184.5224)" clip-path="url(#SVGID_22_)" fill="#FFBC6B" width="1.993" height="108.681"/>
			</g>
		</g>
		<path clip-path="url(#SVGID_4_)" fill="#8B4800" d="M240.033,194.032l-8.853,0.264L225.524,4.462
			c0.122-2.172,1.565-3.954,3.381-4.368c2.315-0.529,5.007,1.223,5.471,4.104C236.262,67.476,238.147,130.754,240.033,194.032"/>
		<path clip-path="url(#SVGID_4_)" fill="#74777C" d="M279.522,215.808c-1.691,10.267-5.445,25.582-14.521,42.215
			c-8.713,15.971-19.033,27.109-26.527,34.041c-7.924-6.384-19.283-17.067-29.134-33.049c-9.783-15.872-14.226-30.715-16.382-40.628
			C221.813,217.526,250.668,216.667,279.522,215.808"/>
		<path clip-path="url(#SVGID_4_)" fill="#3B4046" d="M242.297,240.57c-0.666,2.603-3.033,4.382-5.603,4.289
			c-2.315-0.084-4.378-1.677-5.102-3.971c-0.564-18.881-1.126-37.761-1.689-56.641l10.706-0.32L242.297,240.57z"/>
		<g opacity="0.32" clip-path="url(#SVGID_4_)">
			<g>
				<defs>
					<rect id="SVGID_23_" x="196.354" y="220.885" width="40.88" height="67.228"/>
				</defs>
				<clipPath id="SVGID_24_">
					<use xlink:href="#SVGID_23_"  overflow="visible"/>
				</clipPath>
				<path clip-path="url(#SVGID_24_)" fill="#FFFFFF" d="M196.354,221.425c2.81,9.657,7.616,22.517,16.088,36.287
					c8.355,13.582,17.518,23.569,24.791,30.4c-5.458-7.367-12.682-18.931-17.535-34.493c-4.037-12.949-5.103-24.401-5.227-32.734
					C208.433,221.065,202.394,221.245,196.354,221.425"/>
			</g>
		</g>
		<g opacity="0.24" clip-path="url(#SVGID_4_)">
			<g>
				<defs>
					<rect id="SVGID_25_" x="232.347" y="235.921" width="5.75" height="5.75"/>
				</defs>
				<clipPath id="SVGID_26_">
					<use xlink:href="#SVGID_25_"  overflow="visible"/>
				</clipPath>
				<path clip-path="url(#SVGID_26_)" fill="#FFFFFF" d="M238.096,238.711c0.048,1.587-1.2,2.912-2.788,2.959
					c-1.587,0.048-2.912-1.2-2.959-2.788c-0.047-1.587,1.201-2.912,2.788-2.959S238.049,237.124,238.096,238.711"/>
			</g>
		</g>
		<g opacity="0.24" clip-path="url(#SVGID_4_)">
			<g>
				<defs>
					<rect id="SVGID_27_" x="231.302" y="185.438" width="6.124" height="49.117"/>
				</defs>
				<clipPath id="SVGID_28_">
					<use xlink:href="#SVGID_27_"  overflow="visible"/>
				</clipPath>
				
					<rect x="232.031" y="185.497" transform="matrix(0.9996 -0.0297 0.0297 0.9996 -6.1373 7.0578)" clip-path="url(#SVGID_28_)" fill="#FFFFFF" width="4.666" height="48.999"/>
			</g>
		</g>
		<g opacity="0.25" clip-path="url(#SVGID_4_)">
			<g>
				<defs>
					<rect id="SVGID_29_" x="228.565" y="24.014" width="7.556" height="127.782"/>
				</defs>
				<clipPath id="SVGID_30_">
					<use xlink:href="#SVGID_29_"  overflow="visible"/>
				</clipPath>
				<path clip-path="url(#SVGID_30_)" fill="#F8FF95" d="M228.564,24.014c1.572,10.59,2.134,10.16,2.761,10.163
					c0.594,0.002,1.128,0.392,1.319,0.965c1.159,38.885,2.317,77.769,3.477,116.654l-4.08-11.128L228.564,24.014z"/>
			</g>
		</g>
		<polygon clip-path="url(#SVGID_4_)" fill="#976523" points="54.592,149.287 28.964,135.953 22.48,130.977 19.636,123.251 
			17.147,130.389 14.254,128.883 10.895,142.407 8.772,141.302 0,156.277 2.625,167.252 6.06,171.489 35.161,186.631 		"/>
		<path clip-path="url(#SVGID_4_)" fill="#685233" d="M55.613,193.845c9.328-4.966,17.241-3.729,21.048-2.761
			c9.436,2.397,17.599,9.237,27.003,17.115c8.063,6.757,13.407,12.685,22.568,16.614c4.758,2.042,7.582,2.273,9.516,1.885
			c2.668-0.535,3.973-2.316,4.902-3.584c1.171-1.596,1.624-3.206,1.815-4.378c0.85-0.83,1.909-2.125,2.544-3.999
			c0.505-1.487,1.214-3.58,0.121-6.071c-0.792-1.808-2.601-3.987-7.004-6.712c-8.476-5.246-16.397-6.222-26.558-8.947
			c-11.848-3.178-22.134-5.938-29.513-12.289c-2.978-2.563-8.531-8.332-9.819-18.821c-3.952-3.199-7.903-6.397-11.856-9.597
			l-7.173-3.733c-3.097,6.298-6.194,12.596-9.291,18.893c-3.38,6.15-6.76,12.301-10.139,18.452c2.391,1.243,4.782,2.487,7.173,3.731
			C45.837,191.043,50.727,192.443,55.613,193.845 M126.878,210.626c0.869-1.67,3.647-1.946,6.205-0.615
			c2.557,1.33,3.925,3.763,3.056,5.434c-0.869,1.671-3.647,1.946-6.204,0.616C127.377,214.729,126.009,212.297,126.878,210.626"/>
		<g opacity="0.62" clip-path="url(#SVGID_4_)">
			<g>
				<defs>
					<rect id="SVGID_31_" x="112.979" y="195.635" width="28.563" height="14.002"/>
				</defs>
				<clipPath id="SVGID_32_">
					<use xlink:href="#SVGID_31_"  overflow="visible"/>
				</clipPath>
				<path clip-path="url(#SVGID_32_)" fill="#FFCA36" d="M139.655,209.63c1.579-0.099,2.338-1.261,1.606-2.615
					c-1.818-3.363-12.462-7.217-14.908-8.103c-5.386-1.949-9.925-2.856-13.374-3.277c6.711,3.991,12.54,7.347,17.231,10.001
					C134.421,208.021,137.573,209.761,139.655,209.63"/>
			</g>
		</g>
		
			<rect x="27.241" y="166.203" transform="matrix(-0.4616 0.8871 -0.8871 -0.4616 220.1521 205.3123)" clip-path="url(#SVGID_4_)" fill="#B3948B" width="41.06" height="6.524"/>
		
			<rect x="44.325" y="176.031" transform="matrix(-0.4616 0.8871 -0.8871 -0.4616 247.2544 203.7285)" clip-path="url(#SVGID_4_)" fill="#B3948B" width="34.951" height="1.74"/>
		<path clip-path="url(#SVGID_4_)" fill="#E7E7DE" d="M22.263,135.167c0.587,0.634,1.366,1.08,2.103,1.663
			c0.357,0.292,0.689,0.564,1.022,0.835c0.328,0.275,0.651,0.551,1.013,0.832c1.461,1.163,2.741,2.224,4.407,3.242
			c0.322,0.202,3.43,2.33,6.753,3.988c3.299,1.708,6.69,2.888,6.754,2.674c0.031-0.09-2.023-0.896-2.118-0.97
			c-0.976-0.537-3.478-1.757-5.81-3.089c-2.347-1.31-4.507-2.723-5.172-3.107c-2.451-1.42-4.509-2.794-6.752-4.49
			c-0.742-0.557-1.544-0.981-2.138-1.61c-0.013-0.014-0.038-0.016-0.056-0.008C22.25,135.135,22.245,135.153,22.263,135.167"/>
		<path clip-path="url(#SVGID_4_)" fill="#E7E7DE" d="M20.852,135.98c0.622,0.666,1.434,1.141,2.208,1.756
			c0.377,0.307,0.727,0.594,1.077,0.879c0.345,0.289,0.686,0.579,1.067,0.875c1.539,1.223,2.89,2.333,4.639,3.405
			c0.339,0.213,3.608,2.446,7.103,4.187c3.469,1.793,7.04,3.037,7.105,2.824c0.032-0.09-2.132-0.939-2.232-1.014
			c-1.03-0.56-3.668-1.836-6.125-3.234c-2.471-1.376-4.746-2.86-5.445-3.266c-2.574-1.5-4.735-2.95-7.092-4.742
			c-0.779-0.587-1.614-1.041-2.243-1.702c-0.013-0.014-0.039-0.017-0.057-0.01C20.838,135.946,20.833,135.965,20.852,135.98"/>
		<path clip-path="url(#SVGID_4_)" fill="#E7E7DE" d="M19.441,136.793c0.656,0.698,1.502,1.203,2.314,1.849
			c0.395,0.323,0.762,0.624,1.13,0.924c0.363,0.303,0.722,0.607,1.122,0.917c1.616,1.283,3.038,2.443,4.87,3.57
			c0.355,0.224,3.787,2.56,7.454,4.384c3.638,1.878,7.39,3.187,7.457,2.974c0.033-0.089-2.243-0.98-2.348-1.058
			c-1.084-0.58-3.857-1.915-6.438-3.378c-2.597-1.441-4.986-2.998-5.718-3.427c-2.699-1.579-4.963-3.105-7.433-4.991
			c-0.816-0.62-1.684-1.103-2.348-1.795c-0.014-0.016-0.041-0.019-0.058-0.011C19.427,136.758,19.422,136.778,19.441,136.793"/>
		<path clip-path="url(#SVGID_4_)" fill="#E7E7DE" d="M18.03,137.606c0.691,0.73,1.569,1.264,2.419,1.942
			c0.414,0.339,0.799,0.654,1.184,0.968c0.38,0.318,0.757,0.636,1.176,0.961c1.695,1.342,3.186,2.552,5.102,3.733
			c0.372,0.235,3.966,2.675,7.804,4.583c3.809,1.963,7.74,3.335,7.809,3.123c0.034-0.089-2.352-1.021-2.462-1.103
			c-1.139-0.601-4.048-1.993-6.753-3.522c-2.722-1.505-5.226-3.135-5.991-3.585c-2.823-1.661-5.19-3.262-7.774-5.243
			c-0.852-0.651-1.753-1.163-2.452-1.887c-0.015-0.016-0.041-0.021-0.06-0.013C18.014,137.571,18.009,137.591,18.03,137.606"/>
		<path clip-path="url(#SVGID_4_)" fill="#E7E7DE" d="M16.62,138.42c0.725,0.762,1.637,1.325,2.525,2.035
			c0.433,0.354,0.835,0.683,1.237,1.012c0.398,0.332,0.793,0.664,1.23,1.004c1.773,1.402,3.335,2.662,5.335,3.896
			c0.388,0.247,4.143,2.791,8.153,4.781c3.98,2.048,8.091,3.483,8.162,3.271c0.034-0.087-2.463-1.062-2.578-1.146
			c-1.192-0.622-4.237-2.072-7.067-3.667c-2.847-1.57-5.466-3.272-6.265-3.744c-2.946-1.741-5.416-3.418-8.113-5.495
			c-0.89-0.682-1.824-1.223-2.557-1.979c-0.016-0.017-0.043-0.022-0.061-0.014C16.603,138.383,16.599,138.403,16.62,138.42"/>
		<path clip-path="url(#SVGID_4_)" fill="#E7E7DE" d="M19.68,145.038c0.595,0.523,1.335,0.829,2.057,1.281
			c0.71,0.448,1.302,0.868,2.01,1.32c1.444,0.924,2.72,1.793,4.336,2.601c0.315,0.166,3.36,1.881,6.555,3.396
			c3.174,1.522,6.421,2.926,6.527,2.727c0.046-0.085-1.949-1.006-2.039-1.064c-0.935-0.578-3.376-1.809-5.665-2.99
			c-2.302-1.179-4.431-2.332-5.078-2.634c-2.382-1.111-4.384-2.156-6.572-3.455c-0.723-0.426-1.48-0.706-2.08-1.222
			c-0.013-0.012-0.036-0.01-0.051,0.001C19.666,145.009,19.663,145.028,19.68,145.038"/>
		<path clip-path="url(#SVGID_4_)" fill="#E7E7DE" d="M18.534,146.071c0.636,0.554,1.416,0.887,2.18,1.369
			c0.751,0.476,1.379,0.918,2.123,1.393c1.52,0.97,2.856,1.873,4.53,2.712c0.327,0.173,3.483,1.945,6.729,3.482
			c3.23,1.548,6.476,2.95,6.583,2.752c0.046-0.084-1.954-1.007-2.047-1.067c-0.938-0.581-3.402-1.821-5.741-3.027
			c-2.349-1.198-4.554-2.391-5.224-2.706c-2.47-1.157-4.566-2.257-6.88-3.64c-0.764-0.453-1.56-0.761-2.202-1.308
			c-0.014-0.012-0.037-0.011-0.051-0.001C18.518,146.04,18.516,146.06,18.534,146.071"/>
		<path clip-path="url(#SVGID_4_)" fill="#E7E7DE" d="M17.389,147.104c0.678,0.584,1.497,0.946,2.302,1.456
			c0.792,0.503,1.456,0.968,2.237,1.464c1.595,1.019,2.992,1.955,4.723,2.825c0.339,0.179,3.608,2.009,6.903,3.567
			c3.288,1.575,6.531,2.977,6.639,2.777c0.047-0.084-1.958-1.009-2.054-1.069c-0.942-0.583-3.427-1.832-5.817-3.062
			c-2.396-1.223-4.677-2.453-5.371-2.78c-2.558-1.206-4.747-2.358-7.187-3.825c-0.805-0.48-1.641-0.815-2.324-1.395
			c-0.015-0.012-0.039-0.012-0.053-0.001C17.371,147.072,17.369,147.092,17.389,147.104"/>
		<path clip-path="url(#SVGID_4_)" fill="#E7E7DE" d="M16.244,148.137c0.719,0.615,1.578,1.004,2.425,1.541
			c0.833,0.531,1.532,1.02,2.349,1.539c1.672,1.064,3.129,2.034,4.918,2.936c0.35,0.187,3.731,2.073,7.077,3.653
			c3.345,1.603,6.585,3.001,6.695,2.804c0.047-0.083-1.963-1.012-2.061-1.073c-0.946-0.584-3.453-1.843-5.894-3.097
			c-2.443-1.243-4.8-2.514-5.518-2.854c-2.645-1.253-4.927-2.457-7.494-4.01c-0.846-0.508-1.721-0.872-2.446-1.48
			c-0.015-0.014-0.04-0.014-0.055-0.003C16.225,148.103,16.223,148.124,16.244,148.137"/>
		<path clip-path="url(#SVGID_4_)" fill="#E7E7DE" d="M15.098,149.17c0.761,0.646,1.659,1.063,2.549,1.628
			c0.873,0.559,1.607,1.068,2.462,1.61c1.747,1.112,3.264,2.115,5.111,3.048c0.362,0.193,3.855,2.138,7.25,3.74
			c3.402,1.627,6.641,3.025,6.752,2.828c0.047-0.084-1.967-1.013-2.068-1.076c-0.95-0.586-3.48-1.854-5.971-3.132
			c-2.49-1.265-4.922-2.574-5.664-2.927c-2.733-1.3-5.109-2.557-7.801-4.194c-0.887-0.536-1.802-0.927-2.568-1.566
			c-0.017-0.015-0.042-0.016-0.057-0.004C15.077,149.136,15.077,149.155,15.098,149.17"/>
		<path clip-path="url(#SVGID_4_)" fill="#E7E7DE" d="M6.018,164.624c0.75,0.588,1.542,1.046,2.388,1.603
			c0.83,0.55,1.543,1.038,2.374,1.566c1.699,1.085,3.211,2.038,5.042,2.986c0.359,0.191,3.865,2.117,7.459,3.589
			c3.58,1.521,7.161,2.557,7.199,2.454c0.02-0.043-2.186-0.749-2.294-0.81c-1.076-0.425-3.818-1.475-6.42-2.669
			c-2.611-1.172-5.067-2.479-5.798-2.849c-2.699-1.369-4.996-2.683-7.533-4.323c-0.838-0.539-1.637-0.982-2.39-1.568
			c-0.017-0.013-0.036-0.018-0.044-0.013S5.998,164.609,6.018,164.624"/>
		<path clip-path="url(#SVGID_4_)" fill="#E7E7DE" d="M5.448,165.143c0.767,0.602,1.575,1.07,2.438,1.639
			c0.849,0.563,1.577,1.061,2.427,1.601c1.736,1.107,3.28,2.079,5.15,3.05c0.366,0.194,3.946,2.16,7.617,3.662
			c3.656,1.552,7.315,2.612,7.354,2.51c0.02-0.044-2.234-0.764-2.344-0.826c-1.1-0.433-3.901-1.504-6.559-2.722
			c-2.668-1.197-5.176-2.53-5.923-2.91c-2.755-1.398-5.101-2.741-7.692-4.42c-0.857-0.55-1.67-1.004-2.441-1.603
			c-0.016-0.014-0.036-0.019-0.044-0.014S5.428,165.129,5.448,165.143"/>
		<path clip-path="url(#SVGID_4_)" fill="#E7E7DE" d="M4.879,165.662c0.784,0.612,1.607,1.094,2.489,1.675
			c0.866,0.575,1.611,1.082,2.478,1.634c1.772,1.131,3.349,2.121,5.258,3.112c0.374,0.199,4.029,2.204,7.776,3.736
			c3.731,1.584,7.469,2.667,7.509,2.565c0.02-0.043-2.282-0.78-2.395-0.842c-1.123-0.441-3.984-1.533-6.698-2.776
			c-2.724-1.221-5.285-2.582-6.047-2.97c-2.812-1.429-5.206-2.801-7.851-4.515c-0.875-0.563-1.705-1.029-2.492-1.641
			c-0.017-0.013-0.036-0.018-0.045-0.014C4.854,165.633,4.858,165.647,4.879,165.662"/>
		<path clip-path="url(#SVGID_4_)" fill="#E7E7DE" d="M4.311,166.181c0.801,0.626,1.64,1.117,2.54,1.711
			c0.884,0.586,1.644,1.105,2.529,1.667c1.809,1.155,3.419,2.164,5.366,3.175c0.381,0.204,4.111,2.248,7.935,3.812
			c3.807,1.616,7.622,2.722,7.663,2.62c0.021-0.042-2.33-0.794-2.445-0.858c-1.147-0.447-4.067-1.561-6.838-2.829
			c-2.779-1.244-5.392-2.633-6.17-3.028c-2.87-1.462-5.311-2.861-8.011-4.612c-0.892-0.575-1.737-1.052-2.542-1.675
			c-0.017-0.015-0.037-0.021-0.046-0.016C4.284,166.151,4.29,166.167,4.311,166.181"/>
		<path clip-path="url(#SVGID_4_)" fill="#E7E7DE" d="M3.742,166.7c0.817,0.638,1.672,1.141,2.591,1.748
			c0.901,0.598,1.677,1.127,2.58,1.699c1.846,1.178,3.488,2.206,5.474,3.238c0.389,0.208,4.193,2.292,8.093,3.885
			c1.942,0.81,3.885,1.53,5.351,1.995c1.464,0.479,2.444,0.728,2.468,0.681c0.021-0.042-2.378-0.81-2.495-0.873
			c-1.171-0.456-4.151-1.592-6.978-2.884c-2.835-1.269-5.501-2.685-6.294-3.09c-2.927-1.49-5.417-2.921-8.17-4.709
			c-0.911-0.587-1.772-1.075-2.593-1.71c-0.018-0.014-0.038-0.02-0.047-0.015C3.713,166.67,3.721,166.686,3.742,166.7"/>
		<polygon clip-path="url(#SVGID_4_)" fill="#FFCA36" points="37.721,267.087 37.721,272.795 114.464,272.795 114.464,273.898 
			37.721,273.898 35.69,273.898 35.69,272.795 35.69,267.087 		"/>
		<polygon clip-path="url(#SVGID_4_)" fill="none" stroke="#FFCA36" stroke-miterlimit="10" points="37.721,267.087 37.721,272.795 
			114.464,272.795 114.464,273.898 37.721,273.898 35.69,273.898 35.69,272.795 35.69,267.087 		"/>
		<rect x="114.464" y="272.795" clip-path="url(#SVGID_4_)" fill="#713C2B" width="10.438" height="2.609"/>
		<polygon clip-path="url(#SVGID_4_)" fill="#713C2B" points="104.484,237.321 97.331,236.682 96.265,237.869 96.265,239.44 
			99.699,247.699 		"/>
		<path clip-path="url(#SVGID_4_)" fill="#FFCA36" d="M97.996,252.591c0-11.725,9.504-21.228,21.227-21.228
			c6.592,0,12.481,3.005,16.375,7.719h9.724c3.583,0,6.487,2.904,6.487,6.487v21.761c0,3.582-2.904,6.487-6.487,6.487h-29.661
			c-1.517,0-2.909-0.524-4.014-1.397C103.666,269.368,97.996,261.644,97.996,252.591"/>
		<path clip-path="url(#SVGID_4_)" fill="#AF5200" d="M101.282,252.591c0,9.066,7.758,16.418,17.329,16.418
			c9.57,0,17.328-7.352,17.328-16.418c0-9.067-7.758-16.418-17.328-16.418C109.04,236.173,101.282,243.523,101.282,252.591"/>
		<g opacity="0.51" clip-path="url(#SVGID_4_)">
			<g>
				<defs>
					<rect id="SVGID_33_" x="113.932" y="247.911" width="9.358" height="9.358"/>
				</defs>
				<clipPath id="SVGID_34_">
					<use xlink:href="#SVGID_33_"  overflow="visible"/>
				</clipPath>
				<path clip-path="url(#SVGID_34_)" fill="#FFFFFF" d="M113.932,252.591c0,2.584,2.095,4.679,4.679,4.679
					c2.584,0,4.679-2.095,4.679-4.679s-2.095-4.68-4.679-4.68C116.026,247.911,113.932,250.007,113.932,252.591"/>
			</g>
		</g>
		<g opacity="0.11" clip-path="url(#SVGID_4_)">
			<g>
				<defs>
					<rect id="SVGID_35_" x="129.083" y="70.254" width="83.105" height="123.563"/>
				</defs>
				<clipPath id="SVGID_36_">
					<use xlink:href="#SVGID_35_"  overflow="visible"/>
				</clipPath>
				<path clip-path="url(#SVGID_36_)" d="M143.811,73.714c13.702-7.479,30.873-2.434,38.351,11.269
					c7.152,13.103,2.845,29.371-9.527,37.309l21.579,37l13.639,16.342c4.791,5.741,6.224,14.718,1.136,17.495
					c-5.089,2.777-11.864-3.284-14.1-10.419l-6.367-20.311l-19.446-38.165c-13.369,6.111-29.382,0.933-36.533-12.169
					C125.064,98.363,130.109,81.193,143.811,73.714"/>
			</g>
		</g>
		<path clip-path="url(#SVGID_4_)" fill="#EBAA6B" d="M196.457,184.134l-30.964-60.77c-13.369,6.112-29.382,0.935-36.534-12.169
			c-7.478-13.702-2.433-30.872,11.269-38.351c13.702-7.479,30.873-2.434,38.351,11.268c7.152,13.104,2.845,29.372-9.527,37.31
			l34.359,58.916L196.457,184.134z"/>
		<path clip-path="url(#SVGID_4_)" fill="#C9FAFF" d="M164.497,117.663c11.006-6.007,15.058-19.798,9.051-30.804
			c-6.007-11.005-19.798-15.057-30.804-9.05c-11.005,6.006-15.058,19.798-9.051,30.803
			C139.7,119.618,153.492,123.67,164.497,117.663"/>
		<circle clip-path="url(#SVGID_4_)" fill="none" stroke="#FFFFFF" stroke-miterlimit="10" cx="153.621" cy="97.736" r="22.702"/>
		<path clip-path="url(#SVGID_4_)" fill="#834400" d="M191.306,181.841l-6.447-20.569l5.599-3.056l13.812,16.549
			c4.792,5.741,6.224,14.718,1.136,17.495C200.317,195.036,193.542,188.977,191.306,181.841"/>
		<path clip-path="url(#SVGID_4_)" fill="#FFFFFF" d="M132.797,97.761c-0.004,0.681,0.115,11.529,9.396,17.437
			c6.395,4.071,14.626,4.196,21.284,0.336c-1.785,0.48-9.889,2.451-18.328-2.071C135.793,108.449,133.206,99.305,132.797,97.761"/>
		<g opacity="0.16" clip-path="url(#SVGID_4_)">
			<g>
				<defs>
					<rect id="SVGID_37_" x="140.228" y="69.385" width="68.376" height="122.875"/>
				</defs>
				<clipPath id="SVGID_38_">
					<use xlink:href="#SVGID_37_"  overflow="visible"/>
				</clipPath>
				<path clip-path="url(#SVGID_38_)" d="M178.579,84.113c7.152,13.103,2.845,29.371-9.527,37.31l21.445,36.771l-0.04,0.021
					l13.812,16.548c4.792,5.742,6.225,14.72,1.137,17.495L140.228,72.845C153.93,65.366,171.1,70.411,178.579,84.113"/>
			</g>
		</g>
		<g opacity="0.11" clip-path="url(#SVGID_4_)">
			<g>
				<defs>
					<rect id="SVGID_39_" x="60.025" y="132.347" width="123.709" height="89.983"/>
				</defs>
				<clipPath id="SVGID_40_">
					<use xlink:href="#SVGID_39_"  overflow="visible"/>
				</clipPath>
				<path clip-path="url(#SVGID_40_)" d="M60.025,169.248l7.213-1.896l6.254,2.436l19.62,13.011
					c1.478,0.979,2.955,1.959,4.432,2.938c3.947,1.396,7.893,2.791,11.84,4.187c8.9-4.597,15.473-3.319,18.569-2.349
					c7.673,2.403,13.459,9.012,20.123,16.625c5.715,6.526,9.243,12.231,16.406,16.087c3.721,2.004,6.104,2.26,7.834,1.916
					c2.387-0.475,3.828-2.15,4.852-3.343c1.291-1.502,1.968-3.025,2.343-4.138c0.878-0.777,2.019-1.995,2.9-3.768
					c0.699-1.407,1.683-3.387,1.191-5.771c-0.356-1.727-1.52-3.823-4.813-6.471c-6.34-5.098-12.968-6.128-21.205-8.854
					c-9.605-3.177-17.944-5.935-23.144-12.067c-2.098-2.476-5.834-8.032-5.062-18.02c-2.821-3.093-5.642-6.186-8.463-9.277
					c-1.831-1.214-3.661-2.429-5.492-3.643l-21.219-14.071l-4.604-0.435l-9.755,3.807l-9.032,14.902l1.625,1.078l-9.737,9.872
					l2.215,1.469L60.025,169.248z M169.229,212.014c-1.958-1.298-2.697-3.629-1.652-5.206c1.046-1.576,3.48-1.802,5.438-0.503
					c1.958,1.298,2.698,3.629,1.652,5.206C173.622,213.087,171.187,213.312,169.229,212.014"/>
			</g>
		</g>
		<polygon clip-path="url(#SVGID_4_)" fill="#DA7A16" points="89.274,182.44 69.653,169.43 63.399,166.994 56.187,168.891 
			61.078,163.118 58.862,161.648 68.599,151.776 66.975,150.698 76.007,135.795 85.762,131.99 90.365,132.424 112.645,147.198 		"/>
		<path clip-path="url(#SVGID_4_)" fill="#EE9C3C" d="M117.077,150.138l-5.492-3.642l-11.361,17.835
			c-4.003,5.804-8.006,11.604-12.009,17.407l5.491,3.641c3.947,1.396,7.893,2.791,11.84,4.187c8.9-4.597,15.473-3.319,18.569-2.349
			c7.673,2.403,13.459,9.013,20.123,16.625c5.715,6.526,9.243,12.231,16.406,16.088c3.721,2.003,6.104,2.259,7.834,1.915
			c2.387-0.475,3.827-2.149,4.852-3.343c1.291-1.501,1.969-3.025,2.343-4.138c0.878-0.777,2.019-1.994,2.9-3.768
			c0.699-1.407,1.683-3.387,1.191-5.771c-0.357-1.727-1.52-3.823-4.813-6.471c-6.34-5.098-12.968-6.128-21.205-8.853
			c-9.605-3.178-17.944-5.936-23.144-12.068c-2.098-2.475-5.834-8.032-5.062-18.02C122.719,156.322,119.897,153.23,117.077,150.138
			 M169.177,205.947c1.958,1.298,2.698,3.629,1.652,5.206c-1.045,1.576-3.48,1.802-5.438,0.503
			c-1.958-1.298-2.697-3.629-1.652-5.206C164.784,204.874,167.219,204.649,169.177,205.947"/>
		<path clip-path="url(#SVGID_4_)" fill="#FFBA6B" d="M168.273,215.648c0.289,1.562-0.686,3.233-2.219,3.667
			c-3.807,1.072-10.273-5.724-11.758-7.284c-3.272-3.439-5.292-6.945-6.561-9.831c5.636,2.995,10.421,5.688,14.226,7.893
			C165.378,212.071,167.893,213.589,168.273,215.648"/>
		
			<rect x="82.552" y="163.63" transform="matrix(0.5527 -0.8334 0.8334 0.5527 -92.4319 160.3761)" clip-path="url(#SVGID_4_)" fill="#FFBA6B" width="41.246" height="5.318"/>
		
			<rect x="96.471" y="172.629" transform="matrix(0.5527 -0.8334 0.8334 0.5527 -93.4531 172.5676)" clip-path="url(#SVGID_4_)" fill="#FFBA6B" width="35.109" height="1.418"/>
		<path clip-path="url(#SVGID_4_)" fill="#E7E7DE" d="M65.343,163.869c0.382,0.122,0.733,0.284,1.084,0.458
			c0.353,0.172,0.694,0.384,1.076,0.56c0.376,0.17,0.721,0.348,1.071,0.513s0.699,0.328,1.062,0.522
			c1.497,0.77,2.829,1.46,4.255,2.453c0.144,0.095,0.924,0.594,1.994,1.332c1.074,0.731,2.427,1.726,3.745,2.752
			c2.632,2.05,5.144,4.213,5.06,4.367c-0.035,0.066-1.63-1.238-1.717-1.292c-0.851-0.562-2.887-2.131-4.872-3.579
			c-1.98-1.463-3.932-2.765-4.493-3.169c-0.516-0.374-1.016-0.735-1.519-1.067c-0.497-0.346-0.998-0.657-1.497-0.973
			c-0.499-0.318-1.012-0.603-1.527-0.912c-0.527-0.277-1.052-0.592-1.615-0.865c-0.37-0.181-0.703-0.399-1.048-0.579
			c-0.345-0.18-0.693-0.35-1.073-0.475c-0.017-0.004-0.026-0.021-0.023-0.034C65.309,163.869,65.325,163.86,65.343,163.869"/>
		<path clip-path="url(#SVGID_4_)" fill="#E7E7DE" d="M65.751,162.783c0.394,0.126,0.758,0.294,1.121,0.473
			c0.364,0.177,0.717,0.394,1.111,0.575c0.389,0.176,0.744,0.358,1.103,0.529c0.36,0.169,0.72,0.338,1.093,0.536
			c1.537,0.792,2.9,1.501,4.354,2.512c0.147,0.098,0.941,0.606,2.029,1.355c1.09,0.745,2.46,1.752,3.79,2.788
			c2.658,2.07,5.169,4.232,5.085,4.386c-0.036,0.068-1.632-1.238-1.72-1.295c-0.853-0.561-2.899-2.138-4.906-3.604
			c-2.001-1.48-3.989-2.807-4.562-3.218c-1.05-0.769-2.057-1.445-3.086-2.083c-0.512-0.326-1.039-0.618-1.569-0.936
			c-0.543-0.286-1.082-0.607-1.664-0.889c-0.383-0.187-0.726-0.41-1.084-0.594c-0.357-0.186-0.716-0.36-1.109-0.489
			c-0.018-0.005-0.027-0.022-0.024-0.035S65.732,162.773,65.751,162.783"/>
		<path clip-path="url(#SVGID_4_)" fill="#E7E7DE" d="M66.16,161.697c0.407,0.131,0.783,0.304,1.158,0.486
			c0.377,0.184,0.74,0.404,1.147,0.591c0.4,0.182,0.766,0.369,1.135,0.546c0.371,0.174,0.74,0.347,1.122,0.552
			c1.579,0.813,2.972,1.541,4.454,2.569c0.15,0.1,0.959,0.619,2.063,1.381c1.108,0.757,2.495,1.776,3.837,2.821
			c2.683,2.092,5.192,4.253,5.109,4.407c-0.035,0.067-1.634-1.242-1.723-1.297c-0.854-0.563-2.909-2.149-4.939-3.633
			c-2.023-1.497-4.047-2.849-4.631-3.269c-1.071-0.78-2.101-1.472-3.156-2.126c-0.524-0.333-1.068-0.633-1.611-0.957
			c-0.559-0.294-1.114-0.624-1.714-0.913c-0.394-0.191-0.749-0.42-1.119-0.608c-0.368-0.191-0.74-0.37-1.146-0.504
			c-0.018-0.006-0.028-0.022-0.025-0.035S66.141,161.688,66.16,161.697"/>
		<path clip-path="url(#SVGID_4_)" fill="#E7E7DE" d="M66.568,160.611c0.419,0.136,0.807,0.313,1.195,0.502
			c0.388,0.187,0.763,0.414,1.181,0.605c0.414,0.188,0.789,0.379,1.169,0.561c0.381,0.179,0.76,0.357,1.152,0.566
			c1.619,0.836,3.042,1.582,4.553,2.63c0.152,0.102,0.977,0.631,2.097,1.404c1.125,0.77,2.53,1.802,3.882,2.856
			c2.709,2.11,5.217,4.272,5.135,4.427c-0.035,0.068-1.636-1.242-1.726-1.3c-0.856-0.564-2.921-2.157-4.973-3.659
			c-2.043-1.513-4.103-2.89-4.7-3.317c-1.091-0.796-2.145-1.501-3.226-2.169c-0.537-0.34-1.095-0.648-1.653-0.979
			c-0.574-0.303-1.145-0.641-1.763-0.938c-0.406-0.196-0.772-0.429-1.154-0.624c-0.381-0.194-0.765-0.379-1.183-0.518
			c-0.018-0.006-0.028-0.022-0.026-0.035C66.531,160.61,66.548,160.602,66.568,160.611"/>
		<path clip-path="url(#SVGID_4_)" fill="#E7E7DE" d="M66.977,159.525c0.432,0.141,0.832,0.322,1.231,0.517
			c0.401,0.192,0.787,0.423,1.218,0.621c0.425,0.193,0.81,0.39,1.2,0.575c0.392,0.185,0.781,0.369,1.183,0.583
			c1.659,0.856,3.112,1.622,4.651,2.688c0.156,0.104,0.995,0.643,2.132,1.429c1.143,0.781,2.564,1.827,3.929,2.892
			c2.733,2.131,5.241,4.292,5.159,4.447c-0.036,0.067-1.639-1.245-1.729-1.303c-0.858-0.565-2.932-2.168-5.008-3.687
			c-2.064-1.53-4.16-2.932-4.767-3.366c-0.559-0.402-1.101-0.792-1.652-1.152c-0.541-0.372-1.093-0.716-1.645-1.06
			c-0.549-0.348-1.122-0.664-1.694-1.003c-0.591-0.311-1.176-0.656-1.813-0.961c-0.419-0.203-0.795-0.441-1.189-0.64
			c-0.393-0.201-0.789-0.391-1.22-0.533c-0.019-0.006-0.029-0.023-0.027-0.036C66.939,159.523,66.956,159.516,66.977,159.525"/>
		<path clip-path="url(#SVGID_4_)" fill="#E7E7DE" d="M70.431,158.792c0.728,0.199,1.337,0.57,2.06,0.883
			c0.357,0.151,0.691,0.291,1.023,0.431c0.335,0.137,0.669,0.27,1.017,0.429c1.432,0.633,2.707,1.181,4.066,2.014
			c0.271,0.161,2.98,1.645,5.364,3.495c2.417,1.808,4.464,3.938,4.361,4.076c-0.042,0.061-1.359-1.2-1.445-1.242
			c-0.726-0.538-2.504-1.975-4.333-3.22c-1.815-1.267-3.672-2.338-4.205-2.681c-1.966-1.263-3.76-2.239-5.896-3.217
			c-0.702-0.323-1.3-0.716-2.025-0.921c-0.016-0.005-0.025-0.019-0.022-0.032S70.414,158.785,70.431,158.792"/>
		<path clip-path="url(#SVGID_4_)" fill="#E7E7DE" d="M70.809,157.695c0.746,0.206,1.372,0.583,2.113,0.903
			c0.367,0.154,0.709,0.297,1.05,0.44c0.342,0.14,0.684,0.277,1.041,0.439c1.468,0.65,2.773,1.215,4.167,2.067
			c0.277,0.164,3.053,1.687,5.496,3.584c2.476,1.853,4.575,4.036,4.473,4.175c-0.043,0.062-1.393-1.231-1.48-1.275
			c-0.742-0.555-2.564-2.028-4.438-3.308c-1.859-1.299-3.762-2.398-4.309-2.749c-2.016-1.291-3.857-2.291-6.048-3.29
			c-0.721-0.332-1.335-0.729-2.078-0.94c-0.017-0.004-0.026-0.02-0.023-0.032C70.776,157.696,70.791,157.688,70.809,157.695"/>
		<path clip-path="url(#SVGID_4_)" fill="#E7E7DE" d="M71.187,156.599c0.764,0.212,1.407,0.595,2.167,0.923
			c0.375,0.158,0.726,0.305,1.075,0.452c0.351,0.143,0.701,0.283,1.067,0.45c1.503,0.665,2.839,1.245,4.267,2.118
			c0.284,0.168,3.127,1.729,5.628,3.673c2.535,1.899,4.687,4.137,4.585,4.276c-0.042,0.062-1.425-1.265-1.515-1.31
			c-0.758-0.569-2.623-2.083-4.542-3.395c-1.904-1.332-3.854-2.459-4.414-2.816c-2.067-1.321-3.954-2.344-6.199-3.364
			c-0.74-0.34-1.37-0.743-2.132-0.961c-0.017-0.004-0.026-0.021-0.023-0.033C71.153,156.6,71.169,156.591,71.187,156.599"/>
		<path clip-path="url(#SVGID_4_)" fill="#E7E7DE" d="M71.565,155.502c0.782,0.218,1.441,0.606,2.22,0.942
			c0.384,0.161,0.743,0.313,1.101,0.462c0.359,0.147,0.718,0.292,1.093,0.463c1.539,0.682,2.905,1.278,4.367,2.171
			c0.291,0.172,3.199,1.771,5.759,3.762c2.595,1.943,4.798,4.235,4.697,4.376c-0.041,0.061-1.458-1.297-1.55-1.343
			c-0.774-0.586-2.682-2.138-4.645-3.481c-1.949-1.366-3.945-2.52-4.52-2.887c-2.117-1.35-4.049-2.395-6.351-3.438
			c-0.757-0.346-1.404-0.756-2.184-0.979c-0.017-0.005-0.027-0.021-0.024-0.033C71.53,155.503,71.546,155.493,71.565,155.502"/>
		<path clip-path="url(#SVGID_4_)" fill="#E7E7DE" d="M71.944,154.405c0.8,0.224,1.476,0.619,2.273,0.963
			c0.394,0.165,0.761,0.318,1.127,0.473c0.368,0.15,0.735,0.298,1.118,0.475c1.575,0.696,2.971,1.309,4.468,2.222
			c0.298,0.176,3.272,1.813,5.89,3.851c2.654,1.99,4.91,4.335,4.81,4.476c-0.041,0.062-1.491-1.329-1.584-1.376
			c-0.792-0.603-2.743-2.191-4.751-3.568c-1.994-1.399-4.036-2.581-4.624-2.955c-2.168-1.379-4.146-2.446-6.503-3.512
			c-0.775-0.354-1.439-0.771-2.237-1c-0.017-0.005-0.028-0.021-0.025-0.033C71.909,154.405,71.925,154.397,71.944,154.405"/>
		<path clip-path="url(#SVGID_4_)" fill="#E7E7DE" d="M82.137,137.922c0.787,0.229,1.446,0.637,2.227,1.003
			c0.771,0.353,1.447,0.66,2.208,1.026c1.554,0.766,2.939,1.456,4.453,2.421c0.154,0.093,0.975,0.593,2.121,1.29
			c1.146,0.709,2.614,1.651,4.07,2.597c2.908,1.892,5.724,3.772,5.655,3.942c-0.027,0.072-1.801-1.077-1.896-1.125
			c-0.929-0.479-3.197-1.863-5.376-3.234c-2.173-1.374-4.246-2.652-4.844-3.049c-2.192-1.479-4.138-2.642-6.442-3.785
			c-0.759-0.376-1.405-0.804-2.189-1.039c-0.018-0.005-0.028-0.021-0.025-0.034C82.102,137.922,82.118,137.915,82.137,137.922"/>
		<path clip-path="url(#SVGID_4_)" fill="#E7E7DE" d="M82.528,136.83c0.814,0.239,1.497,0.656,2.301,1.033
			c0.795,0.363,1.488,0.677,2.268,1.053c1.591,0.786,3,1.49,4.535,2.468c0.634,0.293,12.014,7.519,11.883,7.852
			c-0.028,0.072-1.801-1.077-1.896-1.126c-0.93-0.479-3.196-1.863-5.377-3.234c-2.175-1.376-4.274-2.67-4.879-3.072
			c-2.223-1.497-4.211-2.685-6.585-3.859c-0.782-0.386-1.452-0.823-2.263-1.068c-0.018-0.005-0.028-0.021-0.025-0.034
			C82.492,136.83,82.509,136.822,82.528,136.83"/>
		<path clip-path="url(#SVGID_4_)" fill="#E7E7DE" d="M82.919,135.738c0.841,0.248,1.547,0.675,2.375,1.062
			c0.818,0.374,1.529,0.697,2.328,1.083c1.628,0.803,3.062,1.522,4.617,2.512c0.676,0.319,12.053,7.545,11.919,7.875
			c-0.028,0.071-1.801-1.076-1.896-1.125c-1.864-0.957-9.047-5.555-10.293-6.329c-2.253-1.516-4.283-2.729-6.727-3.933
			c-0.805-0.397-1.498-0.844-2.336-1.098c-0.018-0.005-0.029-0.021-0.026-0.034C82.882,135.737,82.899,135.729,82.919,135.738"/>
		<path clip-path="url(#SVGID_4_)" fill="#E7E7DE" d="M83.31,134.646c0.867,0.258,1.598,0.694,2.449,1.091
			c0.842,0.384,1.57,0.716,2.387,1.111c1.666,0.823,3.124,1.556,4.7,2.559c0.158,0.096,1.006,0.612,2.188,1.332
			c1.174,0.727,2.658,1.68,4.111,2.625c2.909,1.891,5.725,3.772,5.656,3.942c-0.027,0.071-1.801-1.077-1.896-1.126
			c-0.93-0.48-3.195-1.863-5.378-3.235c-2.181-1.381-4.327-2.706-4.951-3.118c-2.283-1.534-4.356-2.772-6.87-4.008
			c-0.828-0.406-1.544-0.862-2.409-1.126c-0.019-0.005-0.03-0.022-0.028-0.035C83.272,134.645,83.289,134.637,83.31,134.646"/>
		<path clip-path="url(#SVGID_4_)" fill="#E7E7DE" d="M83.701,133.553c0.894,0.267,1.648,0.713,2.522,1.121
			c0.866,0.394,1.611,0.733,2.448,1.138c1.703,0.842,3.185,1.59,4.781,2.605c0.161,0.098,1.017,0.619,2.211,1.346
			c1.184,0.734,2.674,1.69,4.126,2.635c2.909,1.89,5.724,3.772,5.655,3.942c-0.027,0.071-1.801-1.078-1.896-1.126
			c-0.93-0.48-3.193-1.862-5.379-3.236c-2.184-1.382-4.354-2.723-4.986-3.14c-2.314-1.552-4.428-2.816-7.012-4.082
			c-0.851-0.416-1.592-0.883-2.483-1.156c-0.019-0.006-0.031-0.022-0.029-0.035C83.662,133.552,83.68,133.544,83.701,133.553"/>
	</g>
</g>
</svg>
